<?xml version="1.0" encoding="UTF-8"?>
<svg xmlns="http://www.w3.org/2000/svg" xmlns:xlink="http://www.w3.org/1999/xlink" width="206" height="142" viewBox="0 0 206 142">
  <defs>
    <linearGradient id="a" x1="-.477%" y1="50.076%" y2="50.076%">
      <stop offset="0%" stop-color="#4786FF"></stop>
      <stop offset="84%" stop-color="#609CFC"></stop>
      <stop offset="100%" stop-color="#5F9BFC"></stop>
    </linearGradient>
    <linearGradient id="b" x1="-.417%" x2="99.583%" y1="50.377%" y2="50.377%">
      <stop offset="0%" stop-color="#4786FF"></stop>
      <stop offset="84%" stop-color="#609CFC"></stop>
      <stop offset="100%" stop-color="#5F9BFC"></stop>
    </linearGradient>
    <linearGradient id="c" x1="0%" y1="49.18%" y2="49.18%">
      <stop offset="0%" stop-color="#4786FF"></stop>
      <stop offset="84%" stop-color="#609CFC"></stop>
      <stop offset="100%" stop-color="#5F9BFC"></stop>
    </linearGradient>
    <path id="d" d="M52.784 63.912c0 .576-.144 1.107-.432 1.592-.288.485-.715.875-1.28 1.168-.565.293-1.253.44-2.064.44-.8 0-1.515-.136-2.144-.408a3.625 3.625 0 0 1-1.512-1.176 3.392 3.392 0 0 1-.648-1.792h2.4c.053.459.237.84.552 1.144.315.304.733.456 1.256.456.47 0 .83-.125 1.08-.376.25-.25.376-.573.376-.968 0-.352-.101-.643-.304-.872a2.218 2.218 0 0 0-.768-.552l-.294-.124a14.632 14.632 0 0 0-.548-.206l-.438-.15c-.704-.235-1.28-.467-1.728-.696a3.194 3.194 0 0 1-1.144-1c-.315-.437-.472-1.008-.472-1.712 0-.97.35-1.736 1.048-2.296.699-.56 1.624-.84 2.776-.84 1.195 0 2.147.288 2.856.864.71.576 1.112 1.344 1.208 2.304h-2.432a1.694 1.694 0 0 0-.512-1c-.277-.261-.656-.392-1.136-.392-.416 0-.752.11-1.008.328-.256.219-.384.536-.384.952 0 .33.099.605.296.824.197.219.448.397.752.536s.717.293 1.24.464c.725.256 1.315.496 1.768.72.453.224.84.56 1.16 1.008.32.448.48 1.035.48 1.76z"></path>
    <path id="e" d="M79.928 55.832L84.072 67h-2.384l-.784-2.272h-4.528l-.8 2.272h-2.384l4.16-11.168h2.576zm-1.296 2.416l-1.664 4.768h3.328l-1.664-4.768z"></path>
    <path id="f" d="M108.28 65.272h3.792V67h-6.048V55.704h2.256z"></path>
    <path id="g" d="M139.28 58.496v2.928h4v1.728h-4v3.04h4.48V68h-6.736V56.704h6.736v1.792z"></path>
  </defs>
  <g fill="none" fill-rule="evenodd">
    <path fill="#EAF3FF" d="M20.19 32.08c3-4.7 4.31-10.42 6.33-15.76 2.02-5.34 5.25-10.82 10.31-12.85 5.06-2.03 10.73 0 15.2 3 4.47 3 8.35 7.27 13.12 10.08 5.32 3.13 11.52 4.42 17.66 5.74 6.14 1.32 12.6 2.78 18.08 6.2 5.48 3.42 10 9.31 10.23 16 .23 7.71-5.08 14.53-11 19.37C94.2 68.7 87.69 72.4 82.85 78c-4.84 5.6-7.59 13-11.08 19.59s-8.32 12.9-15.16 14.77c-4.29 1.16-8.92.4-13.08-1.29a60.72 60.72 0 0 1-11.53-6.8c-6.32-4.37-12.5-8.84-17.75-14.38C9 84.35 4.77 77.72 2.92 70.16c-1.85-7.56-1-16.08 3.16-22.45 3.92-5.93 10.21-9.57 14.11-15.63z"></path>
    <path fill="#FFF" fill-rule="nonzero" stroke="#4B6584" stroke-linecap="round" stroke-linejoin="round" stroke-width="1.5" d="M165.65 65.55l-.44 63.39a7.8 7.8 0 0 1-8 7.7l-122.83-.81c-3.87 0-7.1-3.54-7.1-7.7l.1-88.81c0-4.11 3.13-7.51 6.95-7.53l123.33-.48a8 8 0 0 1 8.19 8l-.09 13.75"></path>
    <path fill="#EAF3FF" fill-rule="nonzero" d="M50.63 25.3l90 .09a8.57 8.57 0 0 0 8.55-8.4V8.53A7.643 7.643 0 0 0 141.47.8L51.29.85c-4 0-7.37 3.59-7.38 7.86v9.38a6.92 6.92 0 0 0 6.72 7.21z"></path>
    <path stroke="#4B6584" stroke-linecap="round" stroke-linejoin="round" stroke-width="1.5" d="M68 .87L141.47.8a7.64 7.64 0 0 1 7.76 7.73v8.46a8.57 8.57 0 0 1-8.55 8.4l-90-.09a6.92 6.92 0 0 1-6.73-7.21V8.71c0-4.27 3.36-7.86 7.38-7.86l7.93-.1"></path>
    <path fill="#EAF3FF" fill-rule="nonzero" stroke="#4B6584" stroke-linecap="round" stroke-linejoin="round" stroke-width="1.5" d="M39.44 50.78v19.83a4.06 4.06 0 0 0 4.15 4h13.1a4.1 4.1 0 0 0 4.21-4l.1-19.85a4.06 4.06 0 0 0-4.16-4H43.7a4.12 4.12 0 0 0-4.26 4.02z"></path>
    <path fill="#EAF3FF" fill-rule="nonzero" d="M68.34 50.93v19.59a4.22 4.22 0 0 0 4.36 4.08h12.6a4.29 4.29 0 0 0 4.43-4.08l.07-19.62a4.2 4.2 0 0 0-4.36-4H72.77a4.3 4.3 0 0 0-4.43 4.03z"></path>
    <path stroke="#4B6584" stroke-linecap="round" stroke-linejoin="round" stroke-width="1.5" d="M68.42 64.11v6.41a4.22 4.22 0 0 0 4.36 4.08h12.63a4.29 4.29 0 0 0 4.43-4.08l.07-19.61a4.2 4.2 0 0 0-4.35-4H72.89a4.31 4.31 0 0 0-4.44 4.12v3.83"></path>
    <path fill="#EAF3FF" fill-rule="nonzero" stroke="#4B6584" stroke-linecap="round" stroke-linejoin="round" stroke-width="1.5" d="M99 51.07l-.08 19.36a4.38 4.38 0 0 0 4.57 4.17h12.2a4.44 4.44 0 0 0 4.65-4.17L120.4 51a4.37 4.37 0 0 0-4.57-4.15h-12.21A4.46 4.46 0 0 0 99 51.07zM69.2 31.23l.01-5.91M123.54 25.37l-.03 5.94M131.07 51.21L131 70.33a4.55 4.55 0 0 0 4.8 4.27h11.74a4.63 4.63 0 0 0 4.89-4.27l.12-19.14a4.53 4.53 0 0 0-4.79-4.25L136 46.9a4.66 4.66 0 0 0-4.93 4.31z"></path>
    <path stroke="#4B6584" stroke-linecap="round" stroke-linejoin="round" stroke-width="1.5" d="M66.4 88.4l-.1 38.65 59.38.37.2-38.61z"></path>
    <path fill="#609CFC" fill-rule="nonzero" stroke="#4B6584" stroke-linecap="round" stroke-linejoin="round" stroke-width="1.5" d="M85.35 90.2l-.16 45.97 21.43.14.2-45.95z"></path>
    <path fill="url(#a)" fill-rule="nonzero" d="M71.38 89.1h-6.74L63 95.65h7.15c.393-2.153.803-4.337 1.23-6.55z" transform="translate(1)"></path>
    <path fill="#FFF" fill-rule="nonzero" d="M79.12 89.15l-6.74-.05c-.427 2.213-.85 4.413-1.27 6.6l7.15.06c.28-2.2.567-4.403.86-6.61z"></path>
    <path fill="#FFC250" fill-rule="nonzero" d="M85.87 89.2h-6.75c-.293 2.207-.58 4.41-.86 6.61h7.16l.45-6.61z"></path>
    <path fill="#FFF" fill-rule="nonzero" d="M92.62 89.24h-6.75l-.45 6.61 7.17.06z"></path>
    <path fill="url(#b)" fill-rule="nonzero" d="M98.38 89.29l-6.76-.05v6.63h7.19c-.17-2.16-.29-4.36-.43-6.58z" transform="translate(1)"></path>
    <path fill="#FFF" fill-rule="nonzero" d="M106.16 89.34h-6.78c.14 2.22.26 4.42.4 6.63L107 96c-.293-2.22-.573-4.44-.84-6.66z"></path>
    <path fill="#FFC250" fill-rule="nonzero" d="M112.94 89.38h-6.78c.26 2.22.527 4.433.8 6.64h7.2c-.41-2.2-.81-4.41-1.22-6.64z"></path>
    <path fill="#FFF" fill-rule="nonzero" d="M119.72 89.43l-6.78-.05c.41 2.23.81 4.44 1.22 6.65h7.21c-.55-2.16-1.1-4.37-1.65-6.6z"></path>
    <path fill="url(#c)" fill-rule="nonzero" d="M125.52 89.48h-6.8c.55 2.23 1.1 4.44 1.65 6.65l7.22.06c-.69-2.27-1.38-4.48-2.07-6.71z" transform="translate(1)"></path>
    <path fill="#4786FF" fill-rule="nonzero" d="M67.4 101.88h.23a3.41 3.41 0 0 0 3.47-3.35V95.7h-7.15v2.83a3.44 3.44 0 0 0 3.45 3.35z"></path>
    <path fill="#FFF" fill-rule="nonzero" d="M74.55 101.94h.23a3.39 3.39 0 0 0 3.47-3.34v-2.84l-7.15-.06v2.84a3.43 3.43 0 0 0 3.45 3.4z"></path>
    <path fill="#FBB22B" fill-rule="nonzero" d="M81.71 102h.22a3.4 3.4 0 0 0 3.48-3.35v-2.84h-7.16v2.79a3.44 3.44 0 0 0 3.46 3.4z"></path>
    <path fill="#FFF" fill-rule="nonzero" d="M88.87 102.06h.23a3.41 3.41 0 0 0 3.48-3.35v-2.84l-7.17-.06v2.84a3.46 3.46 0 0 0 3.46 3.41z"></path>
    <path fill="#4786FF" fill-rule="nonzero" d="M96 102.12h.24a3.41 3.41 0 0 0 3.48-3.36v-2.84h-7.19v2.84a3.45 3.45 0 0 0 3.47 3.36z"></path>
    <path fill="#FFF" fill-rule="nonzero" d="M103.22 102.18h.24a3.44 3.44 0 0 0 3.54-3.36V96l-7.18-.06v2.84a3.46 3.46 0 0 0 3.4 3.4z"></path>
    <path fill="#FBB22B" fill-rule="nonzero" d="M110.42 102.23h.22a3.44 3.44 0 0 0 3.51-3.36V96H107v2.84a3.45 3.45 0 0 0 3.42 3.39z"></path>
    <path fill="#FFF" fill-rule="nonzero" d="M117.62 102.29h.23a3.42 3.42 0 0 0 3.5-3.36v-2.85h-7.21v2.85a3.45 3.45 0 0 0 3.48 3.36z"></path>
    <path fill="#4786FF" fill-rule="nonzero" d="M124.83 102.35h.24a3.43 3.43 0 0 0 3.51-3.35v-2.86l-7.22-.06v2.85a3.46 3.46 0 0 0 3.47 3.42z"></path>
    <path stroke="#4B6584" stroke-linecap="round" stroke-linejoin="round" stroke-width="1.5" d="M17.43 135.72l154.77 1.05"></path>
    <path fill="#00EAB1" d="M194.83 85.58c-1.45-1.94-2.18-4.51-3.52-6.55-2.3-3.53-5.8-4.73-9.2-5.68-2.89-.82-5.81-3.89-8.76-1.86a9.57 9.57 0 0 0-3.35 5.76 16.74 16.74 0 0 1-.83 3.15c-1.56 3.45-5.51 3-8.6 3.73a10 10 0 0 0-7 6.39c-1.24 3.4-.7 7.89 1.58 10.36 1.36 1.48 3.28 2.33 4 4.39a15.9 15.9 0 0 1 .48 2.3c1 5.05 5.61 8.59 9.61 7.31 3.6-1.16 6-5.37 9.45-7.26 3.27-1.81 7.09-1.33 10.72-.76 3.63.57 7.51 1.16 10.94-.49 3.43-1.65 6.16-6.46 4.82-10.74-1.56-5.15-7.32-6.01-10.34-10.05z"></path>
    <path fill="#7996B2" fill-rule="nonzero" d="M191.07 87.63c0 5.15-4.56 10.88-10 11.61.21-1.25.41-2.5.59-3.75.6-4.29-.54-9.08 1.07-13.19.18-.48-.6-.68-.79-.22-1.6 3.69-.65 7.92-1 11.8-.19 1.83-.48 3.63-.8 5.44H180c-.41 0-.55.63-.11.71h.11c-.53 2.91-1.11 5.8-1.44 8.73-6.78-3.3-9.7-9.81-11.9-16.29-.11-.32-.69-.31-.65.06.76 6.92 5.27 14.24 11.91 17.52a.75.75 0 0 0 .5.08c-1 11-.69 17.75-.87 28.82 0 1 1.72 1.16 1.72.11 0-10.93-.35-17.44.27-28.35a99.71 99.71 0 0 1 1.42-10.59c6.21.19 11.48-7 11.48-12.47-.04-.81-1.38-.84-1.37-.02z"></path>
    <path fill="#EAF3FF" fill-rule="nonzero" d="M162.16 137.39c-1.08.34-.75 1.76.43 1.84l23.22 1.46a8 8 0 0 0 3.71-.34c3-1.36.7-4.81-1.63-5.89a20.87 20.87 0 0 0-13.32-1c-1.9.51-3.65 1.3-5.59 1.7l-6.82 2.23z"></path>
    <g fill-rule="nonzero" transform="translate(1)">
      <use fill="#000" xlink:href="#d"></use>
      <use fill="#4B6584" xlink:href="#d"></use>
    </g>
    <g fill-rule="nonzero" transform="translate(1)">
      <use fill="#000" xlink:href="#e"></use>
      <use fill="#4B6584" xlink:href="#e"></use>
    </g>
    <g fill-rule="nonzero" transform="translate(1)">
      <use fill="#000" xlink:href="#f"></use>
      <use fill="#4B6584" xlink:href="#f"></use>
    </g>
    <g fill-rule="nonzero" transform="translate(1)">
      <use fill="#000" xlink:href="#g"></use>
      <use fill="#4B6584" xlink:href="#g"></use>
    </g>
  </g>
</svg>
