<?xml version="1.0" encoding="UTF-8"?>
<svg xmlns="http://www.w3.org/2000/svg" width="647.4" height="417.4" overflow="scroll">
  <style>.st1,.st4,.st5,.st6,.st8,.st9{fill-rule:evenodd;clip-rule:evenodd;fill:#fff}.st4,.st5,.st6,.st8,.st9{fill:#d1e1f2}.st5,.st6,.st8,.st9{fill:#ddeaf9}.st6,.st8,.st9{fill:#5c7793}.st8,.st9{fill:#b9cbe1}.st9{fill:#eaf3ff}.st11,.st22,.st24,.st25,.st27,.st28{fill-rule:evenodd;clip-rule:evenodd;fill:#ffac00}.st22,.st24,.st25,.st27,.st28{fill:#47637c}.st24,.st25,.st27,.st28{fill:#d56e19}.st25,.st27,.st28{fill:#ffad01}.st27,.st28{fill:#aebdd1}.st28{fill:#bac8db}.st29{opacity:.5}.st30,.st31,.st33,.st36,.st37{fill-rule:evenodd;clip-rule:evenodd;fill:#90abc6}.st31,.st33,.st36,.st37{fill:#003d62}.st33,.st36,.st37{fill:#4786ff}.st36,.st37{fill:#dbe5ef}.st37{fill:#d6e1f0}.st43{fill:none;stroke:#dce8f7;stroke-width:3.135;stroke-linecap:round;stroke-linejoin:round}.st44{fill-rule:evenodd;clip-rule:evenodd}.st47{fill:none;stroke:#4b6584;stroke-width:1.425}.st48,.st49{fill-rule:evenodd;clip-rule:evenodd}.st48{fill:#609cfc}.st49{opacity:.1;enable-background:new}.st50{stroke-linecap:round;stroke-linejoin:round}.st50,.st51,.st52{fill:none;stroke:#4b6584;stroke-width:1.5675}.st52{stroke:#fff;stroke-linecap:round;stroke-linejoin:round}.st53,.st54{stroke-width:1.045}.st53{fill-rule:evenodd;clip-rule:evenodd;fill:#fff;stroke:#eaf4ff}.st54{fill:none;stroke:#eaf3ff}.st55,.st57{enable-background:new}.st55{fill-rule:evenodd;clip-rule:evenodd;opacity:.2}.st57{opacity:.6;fill:none;stroke:#cadbef;stroke-width:2.09;stroke-dasharray:6.27,8.36}.st59,.st61{fill-rule:evenodd;clip-rule:evenodd;fill:#ffb389}.st61{fill:#3b77ea}</style>
  <defs>
    <filter id="Adobe_OpacityMaskFilter" filterUnits="userSpaceOnUse" x="0" y="0" width="647.4" height="417.4">
      <feColorMatrix values="1 0 0 0 0 0 1 0 0 0 0 0 1 0 0 0 0 0 1 0"></feColorMatrix>
    </filter>
  </defs>
  <mask maskUnits="userSpaceOnUse" x="0" y="0" width="647.4" height="417.4" id="mask-2_1_">
    <g filter="url(#Adobe_OpacityMaskFilter)">
      <path id="path-1_1_" class="st1" d="M-12-227.5h842v731H-12z"></path>
    </g>
  </mask>
  <g id="Group-2_1_" mask="url(#mask-2_1_)">
    <g transform="translate(12 -79)">
      <g id="Hero-Illustration-girl_1_" transform="translate(0 303)">
        <g id="Group-6_1_" transform="translate(300.427 380.331)" opacity=".8">
          <path class="st4" d="M240-207.5c0 1.2-.7 2.2-1.5 3-.8.8-1.8 1.5-2.8 2.1-2 1.2-4.2 2-6.4 2.8-4.4 1.6-8.9 2.7-13.5 3.7-9.1 2-18.3 3.3-27.5 4.4-18.5 2.1-37.1 3.2-55.7 3.7s-37.2.3-55.8-.6c-9.3-.4-18.6-1.1-27.8-1.9-9.3-.9-18.5-2-27.7-3.5-4.6-.8-9.2-1.7-13.7-2.8-4.5-1.1-9-2.4-13.3-4.4-1.1-.5-2.1-1.1-3.1-1.8s-1.9-1.5-2.6-2.6c-.3-.5-.6-1.2-.6-1.9s.1-1.4.4-2c.6-1.2 1.5-2 2.5-2.7 2-1.4 4.1-2.4 6.3-3.2 2.2-.8 4.4-1.6 6.7-2.2 9-2.5 18.2-4 27.4-5.3 9.2-1.2 18.5-2.1 27.8-2.8 18.6-1.3 37.2-1.9 55.8-1.8 18.6.1 37.2.8 55.7 2.4-18.5-1.3-37.1-1.9-55.7-1.8-18.6.1-37.2.7-55.7 2.1-9.3.7-18.5 1.7-27.7 2.9-9.2 1.3-18.4 2.8-27.3 5.3-2.2.6-4.4 1.3-6.6 2.2-2.1.8-4.2 1.8-6.1 3.1-.9.7-1.7 1.4-2.2 2.3-.4.9-.4 1.9.1 2.8.5.9 1.4 1.6 2.3 2.3.9.6 1.9 1.2 2.9 1.7 4.1 2 8.6 3.2 13.1 4.3 4.5 1.1 9.1 2 13.6 2.8 9.1 1.6 18.4 2.7 27.6 3.6 9.2.9 18.5 1.5 27.8 2 18.6.9 37.2 1.1 55.7.8 18.6-.4 37.2-1.4 55.6-3.4 9.2-1 18.5-2.3 27.6-4.1 4.5-.9 9.1-2 13.5-3.5 2.2-.8 4.4-1.6 6.4-2.8 1-.6 2-1.2 2.8-2 1-1 1.7-2 1.7-3.2" transform="translate(0 .6)"></path>
          <path id="Fill-4_1_" class="st4" d="M80.1-214.1c17.6-2.1 35.4-2.5 53.2-1.7 4.4.2 8.9.5 13.3 1s8.8 1 13.2 1.9c2.2.4 4.4.9 6.5 1.6 1.1.4 2.1.7 3.2 1.2.5.3 1 .5 1.5.9s1 .8 1.3 1.5c.1.2.1.3.2.5 0 .2.1.4 0 .6 0 .4-.2.7-.4 1-.2.3-.4.5-.7.7-.2.2-.5.4-.7.6-1 .7-2.1 1.1-3.1 1.5-2.1.8-4.3 1.3-6.5 1.8-4.4.9-8.8 1.5-13.2 2-4.4.5-8.9.8-13.3 1.1-8.9.5-17.8.7-26.6.4-8.9-.2-17.7-.7-26.6-1.7-4.4-.5-8.8-1.2-13.1-2.1-2.2-.5-4.3-1-6.4-1.8-1-.4-2.1-.8-3-1.3-.5-.3-.9-.6-1.3-1s-.7-.9-.7-1.4c0 .6.4 1 .8 1.4.4.4.9.7 1.4.9 1 .5 2 .9 3.1 1.3 2.1.7 4.3 1.2 6.4 1.6 4.3.8 8.7 1.4 13.2 1.8 8.8.9 17.7 1.3 26.5 1.4 8.9.1 17.7-.1 26.6-.6 4.4-.3 8.8-.6 13.2-1.1 4.4-.5 8.8-1.1 13.1-2 2.2-.5 4.3-1 6.3-1.7 1-.4 2-.8 2.9-1.4.4-.3.8-.6 1.1-1 .2-.4.3-.7.1-1-.1-.4-.5-.7-.9-1-.4-.3-.9-.6-1.3-.8-1-.5-2-.8-3-1.2-2.1-.7-4.2-1.2-6.4-1.6-8.7-1.7-17.5-2.4-26.3-3-8.8-.5-17.7-.7-26.6-.6-9.3 0-18.1.4-27 1.3"></path>
        </g>
        <g id="Group_1_" transform="translate(316.823 133.505)">
          <path id="Fill-6_1_" class="st5" d="M96.9-227.5c-103.4 0-74.2 138.8-74.2 138.8h148.4s29.2-138.8-74.2-138.8"></path>
          <path id="Fill-8_1_" class="st6" d="M22.7-6.5l5 12.4h11.6v-12s-7.4-2.1-16.6-.4"></path>
          <path id="Fill-10_1_" class="st6" d="M166.8-6.5l-5 12.4h-11.6v-12c.1 0 7.5-2.1 16.6-.4"></path>
          <path id="Fill-12_1_" class="st5" d="M30.4-52.9h133v-43.2h-133z"></path>
          <path id="Fill-14_1_" d="M203.1-125.1c-12.6-20.5-39.1-8.2-42.2 16.8-3.1 25 0 59.9 0 59.9H33s3.1-34.9 0-59.9-29.5-37.3-42.2-16.8c-12.6 20.5 22 29.2 20.1 54.1-1.9 25 9 65.4 9 65.4 32.1 3.5 77 4.8 77 4.8s44.9-1.2 77-4.8c0 0 11-40.4 9-65.3-1.9-25 32.8-33.7 20.2-54.2" fill-rule="evenodd" clip-rule="evenodd" fill="#cadbef"></path>
          <path id="Fill-15_1_" class="st8" d="M147-42.1H46.9c-9.1 0-16.5-7.4-16.5-16.5V-69c0-9.1 7.4-16.5 16.5-16.5H147c9.1 0 16.5 7.4 16.5 16.5v10.4c-.1 9.1-7.4 16.5-16.5 16.5"></path>
          <path id="Fill-16_1_" class="st9" d="M15.7-128.4c0 4.1-3.3 7.4-7.4 7.4-4.1 0-7.4-3.3-7.4-7.4 0-4.1 3.3-7.4 7.4-7.4 4.1.1 7.4 3.4 7.4 7.4"></path>
          <path id="Fill-17_1_" class="st9" d="M195.7-128.4c0 4.1-3.3 7.4-7.4 7.4-4.1 0-7.4-3.3-7.4-7.4 0-4.1 3.3-7.4 7.4-7.4 4.1.1 7.4 3.4 7.4 7.4"></path>
        </g>
        <g id="Group-25_1_" transform="translate(490.31 347.016)">
          <g id="Group-23_1_">
            <path id="Fill-18_1_" d="M28.9-206.8z" fill-rule="evenodd" clip-rule="evenodd" fill="#454342"></path>
            <path id="Fill-51_1_" class="st11" d="M20.4-201.7s4.3 1 13-1.8c8.7-2.7 19.9-7.6 26.8-2.5 6.9 5.2 13.5 20.3-.9 25.4-14.4 5.2-.3 10.6 3.8 4 0 0-2.6 6.6-9.2 4.6s-4.7-8.7 2.5-11.2c7.3-2.6 3.5-2.3 3.5-2.3s-16.7 3-21.6 3.4l-9.4-.5"></path>
            <g id="Group-69_1_" transform="translate(32.035 19.054)">
              <g id="Group-56_1_">
                <defs>
                  <filter id="Adobe_OpacityMaskFilter_1_" filterUnits="userSpaceOnUse" x="19.3" y="-197" width="16.8" height="8.1">
                    <feColorMatrix values="1 0 0 0 0 0 1 0 0 0 0 0 1 0 0 0 0 0 1 0"></feColorMatrix>
                  </filter>
                </defs>
                <mask maskUnits="userSpaceOnUse" x="19.3" y="-197" width="16.8" height="8.1" id="mask-5_1_">
                  <g filter="url(#Adobe_OpacityMaskFilter_1_)">
                    <path id="path-4_1_" class="st1" d="M1.4-222.5c-8.7 2.7-13 1.8-13 1.8l8.5 19.1 9.4.5c4.9-.4 21.6-3.4 21.6-3.4s3.7-.3-3.5 2.3c-7.3 2.6-9.2 9.2-2.5 11.2 6.6 2 9.2-4.6 9.2-4.6-4 6.6-18.2 1.2-3.8-4 14.4-5.2 7.8-20.2.9-25.4-2.2-1.7-4.9-2.3-7.7-2.3-6.1.1-13.2 2.9-19.1 4.8"></path>
                  </g>
                </mask>
                <path id="Fill-54_1_" d="M32.6-196.9c-2.3.9-3.5 1.9-5.9 2.5-1.1.3-1.8.4-3 .4h-.1-.2c-.2 0-.4-.1-.5-.1.1 0-.3-.1-.3-.2-.3-.2-.6-.3-1-.4-.9-.3-2.1.3-2.3 1.3-.8 3.9 4.4 4.9 7.2 4.5 3-.4 7.2-1.3 9.1-3.9 1.4-1.9-.8-5-3-4.1" mask="url(#mask-5_1_)" fill-rule="evenodd" clip-rule="evenodd" fill="#47637c"></path>
              </g>
              <g id="Group-59_1_">
                <defs>
                  <filter id="Adobe_OpacityMaskFilter_2_" filterUnits="userSpaceOnUse" x="19.4" y="-228.3" width="19.5" height="14.2">
                    <feColorMatrix values="1 0 0 0 0 0 1 0 0 0 0 0 1 0 0 0 0 0 1 0"></feColorMatrix>
                  </filter>
                </defs>
                <mask maskUnits="userSpaceOnUse" x="19.4" y="-228.3" width="19.5" height="14.2" id="mask-7_1_">
                  <g filter="url(#Adobe_OpacityMaskFilter_2_)">
                    <path id="path-6_1_" class="st1" d="M1.4-222.5c-8.7 2.7-13 1.8-13 1.8l8.5 19.1 9.4.5c4.9-.4 21.6-3.4 21.6-3.4s3.7-.3-3.5 2.3c-7.3 2.6-9.2 9.2-2.5 11.2 6.6 2 9.2-4.6 9.2-4.6-4 6.6-18.2 1.2-3.8-4 14.4-5.2 7.8-20.2.9-25.4-2.2-1.7-4.9-2.3-7.7-2.3-6.1.1-13.2 2.9-19.1 4.8"></path>
                  </g>
                </mask>
                <path id="Fill-57_1_" d="M38.6-219.4c-1.4-2.8-5.6-1.1-7.7-.2-1.4.6-3.2 1.4-4.4-.1-2-2.7-2.2-8.7-6.6-8.6-.6 0-.8.8-.3 1.1 1.5 1.1 1.5 3.5 1.7 5.1.4 2.3.9 4.5 2.5 6.2 1.9 2 4.9 2.1 7.3 1.4 1.1-.3 2.2-.8 3.3-1.2 1.4-.4 2.7.1 3.8-1.1.7-.7.8-1.7.4-2.6" mask="url(#mask-7_1_)" fill-rule="evenodd" clip-rule="evenodd" fill="#47637c"></path>
              </g>
              <g id="Group-62_1_">
                <defs>
                  <filter id="Adobe_OpacityMaskFilter_3_" filterUnits="userSpaceOnUse" x="22.2" y="-229.8" width="11.6" height="14.8">
                    <feColorMatrix values="1 0 0 0 0 0 1 0 0 0 0 0 1 0 0 0 0 0 1 0"></feColorMatrix>
                  </filter>
                </defs>
                <mask maskUnits="userSpaceOnUse" x="22.2" y="-229.8" width="11.6" height="14.8" id="mask-9_1_">
                  <g filter="url(#Adobe_OpacityMaskFilter_3_)">
                    <path id="path-8_1_" class="st1" d="M1.4-222.5c-8.7 2.7-13 1.8-13 1.8l8.5 19.1 9.4.5c4.9-.4 21.6-3.4 21.6-3.4s3.7-.3-3.5 2.3c-7.3 2.6-9.2 9.2-2.5 11.2 6.6 2 9.2-4.6 9.2-4.6-4 6.6-18.2 1.2-3.8-4 14.4-5.2 7.8-20.2.9-25.4-2.2-1.7-4.9-2.3-7.7-2.3-6.1.1-13.2 2.9-19.1 4.8"></path>
                  </g>
                </mask>
                <path id="Fill-60_1_" d="M33.5-220.7c.6-1.5-.4-3.6-1.2-4.9-.6-.9-1.2-1.7-1.9-2.5-.4-.4-.8-.7-1.2-1-.1-.1-1-.8-.5-.3-1-.8-2.1-.6-2.8.1h-.1c-1.7-1.1-4.4.7-3.6 2.8.1.4.3.8.5 1.2.1 1.5 1 3.1 1.7 4.3 1.2 2.1 3 4.6 5.2 5.8.9.5 2 .4 2.6-.3 1.7-1.7 1.9-3.4 1.3-5.2" mask="url(#mask-9_1_)" fill-rule="evenodd" clip-rule="evenodd" fill="#47637c"></path>
              </g>
              <g id="Group-65_1_">
                <defs>
                  <filter id="Adobe_OpacityMaskFilter_4_" filterUnits="userSpaceOnUse" x="-1" y="-230.6" width="12.4" height="11.4">
                    <feColorMatrix values="1 0 0 0 0 0 1 0 0 0 0 0 1 0 0 0 0 0 1 0"></feColorMatrix>
                  </filter>
                </defs>
                <mask maskUnits="userSpaceOnUse" x="-1" y="-230.6" width="12.4" height="11.4" id="mask-11_1_">
                  <g filter="url(#Adobe_OpacityMaskFilter_4_)">
                    <path id="path-10_1_" class="st1" d="M1.4-222.5c-8.7 2.7-13 1.8-13 1.8l8.5 19.1 9.4.5c4.9-.4 21.6-3.4 21.6-3.4s3.7-.3-3.5 2.3c-7.3 2.6-9.2 9.2-2.5 11.2 6.6 2 9.2-4.6 9.2-4.6-4 6.6-18.2 1.2-3.8-4 14.4-5.2 7.8-20.2.9-25.4-2.2-1.7-4.9-2.3-7.7-2.3-6.1.1-13.2 2.9-19.1 4.8"></path>
                  </g>
                </mask>
                <path id="Fill-63_1_" d="M10.8-229.9s.1 0 0 0c-.1-.2-.3-.3-.5-.4-.6-.3-1.3-.4-2.1.1-2.4 1.5-7.5 6.2-8.4 6-.6-.2-1 .5-.8 1 1 2.2 3.9 5 6.5 3.8 2.8-1.3 3.5-5.1 5.4-7.3.8-1.1.6-2.4-.1-3.2" mask="url(#mask-11_1_)" fill-rule="evenodd" clip-rule="evenodd" fill="#47637c"></path>
              </g>
              <g id="Group-68_1_">
                <defs>
                  <filter id="Adobe_OpacityMaskFilter_5_" filterUnits="userSpaceOnUse" x="15.5" y="-209.2" width="7.9" height="8.4">
                    <feColorMatrix values="1 0 0 0 0 0 1 0 0 0 0 0 1 0 0 0 0 0 1 0"></feColorMatrix>
                  </filter>
                </defs>
                <mask maskUnits="userSpaceOnUse" x="15.5" y="-209.2" width="7.9" height="8.4" id="mask-13_1_">
                  <g filter="url(#Adobe_OpacityMaskFilter_5_)">
                    <path id="path-12_1_" class="st1" d="M1.4-222.5c-8.7 2.7-13 1.8-13 1.8l8.5 19.1 9.4.5c4.9-.4 21.6-3.4 21.6-3.4s3.7-.3-3.5 2.3c-7.3 2.6-9.2 9.2-2.5 11.2 6.6 2 9.2-4.6 9.2-4.6-4 6.6-18.2 1.2-3.8-4 14.4-5.2 7.8-20.2.9-25.4-2.2-1.7-4.9-2.3-7.7-2.3-6.1.1-13.2 2.9-19.1 4.8"></path>
                  </g>
                </mask>
                <path id="Fill-66_1_" d="M21.8-208.8c-2-.9-3.9-.2-4.8 1.8-.4.8-.6 1.6-.8 2.4-.1.3-.1.6-.2.9v.1c-.1.3-.2.6-.3.8-.5.7.4 1.8 1.2 1.5.4.3.8.4 1.3.4 1.5.2 3.3-1.6 4.2-2.7 1.1-1.5 1.7-4.2-.6-5.2" mask="url(#mask-13_1_)" fill-rule="evenodd" clip-rule="evenodd" fill="#47637c"></path>
              </g>
            </g>
            <path id="Fill-70_1_" class="st22" d="M9.5-208.7s-6.2 1.9-7.1 8.5c-1 6.5-2.3 14.4-8.1 14-5.8-.4-11.3 5.8 1.3 5.3 12.7-.5 13.1-4.9 13.1-4.9"></path>
            <path id="Fill-72_1_" class="st11" d="M23.2-185l-6.3 2.9s-5.8 1.3-5.6 5.4c.2 3.7 9.6 1.7 9.2-2.5l9-2.9"></path>
            <path id="Fill-74_1_" class="st11" d="M9.6-186.2l-6.3 2.9s-5.8 1.3-5.6 5.4c.2 3.7 9.6 1.7 9.2-2.5l9-2.9"></path>
            <path id="Fill-76_1_" class="st11" d="M16.6-211.8c-5.6.4-9.4 2.7-11.7 12.3-2.3 9.6-5 18.6 3.6 18.8 4.2.1 7.3.5 10.2-.8 4.5-1.9 6.3-8.2 7.8-12.3 2.3-6.4 5.3-19.1-9.9-18"></path>
            <path id="Fill-78_1_" class="st22" d="M25.7-202.2c1.9 4.4-1.2 3.3-3.7 13.3s13.1 9.2 18.6 6.6c5.6-2.6-4.6-3.8-7.9-6.8-3.3-3.1-.2-8.8-1.3-12.6-1.2-3.7-4.2-5.3-4.2-5.3"></path>
            <path id="Fill-80_1_" class="st22" d="M15.5-197c.4.6.8 1 1.2 1.2.4.2.7.2 1.2.2.9-.1 1.8-.6 2.9-1.4 0 .7-.3 1.4-.8 1.9s-1.2 1-2 1c-.4.1-.8 0-1.2-.1-.4-.1-.8-.4-1-.7-.5-.6-.5-1.4-.3-2.1"></path>
            <path id="Fill-82_1_" class="st22" d="M5.7-197.4c.4.4.7.7 1 .8.3.1.5.1.8 0 .6 0 1.2-.3 2.2-.8.1.6-.1 1.1-.5 1.6-.4.4-.9.8-1.6.8-.3 0-.6 0-1-.1-.3-.1-.6-.3-.8-.6-.3-.5-.3-1.2-.1-1.7"></path>
            <path id="Fill-84_1_" class="st22" d="M34-185.9c-.6-.5-.9-1.4-.5-2.2.4-.8 1.2-1.3 2-1.5.8-.2 1.7-.2 2.4 0 .8.1 1.6.4 2.3.7l-.2-.1c1.4-.1 2.7-.2 4.1-.2l-.4 1.4c-.9-.6-1.7-1.4-2.5-2.2-.7-.8-1.4-1.8-1.7-2.9-.1-.6-.2-1.2-.1-1.8.1-.6.3-1.1.6-1.6.7-.9 1.6-1.6 2.5-2-.8.7-1.5 1.5-1.8 2.4-.4.9-.3 1.8 0 2.6s.9 1.6 1.6 2.3c.6.7 1.4 1.3 2.2 1.9l1.9 1.4-2.3.1c-1.4 0-2.7.1-4.1.1h-.2l-.1-.1c-.6-.3-1.3-.6-2-.7-.7-.2-1.4-.3-2-.2-.7.1-1.3.3-1.7.8-.3.4-.4 1.2 0 1.8"></path>
            <path id="Fill-86_1_" d="M14.7-205.2s-4.6 11.9-6.2 12.7c-1.5.8-6.3 3.5-6.2 7.5.2 4 4.4 5.4 8.3 5.2 3.8-.2 10.6-.5 11.1-3.9s-4.5-5.5-6.5-8c-1.8-2.6-.5-13.5-.5-13.5" fill-rule="evenodd" clip-rule="evenodd" fill="#ffd38e"></path>
            <path id="Fill-88_1_" class="st24" d="M16.4-186.1c0-.1-.1-.1-.1-.2-.1-.2-.4-.2-.5-.1-.2.2-.1.4.1.5.1 0 .1.1.2.1.1.3.5-.1.3-.3"></path>
            <path id="Fill-90_1_" class="st24" d="M15.7-183.6c-.4 0-.4.6 0 .6s.4-.6 0-.6"></path>
            <path id="Fill-92_1_" class="st24" d="M17.7-182.1v-.1c-.1-.2-.4-.2-.5 0v.1c-.1.2.1.4.3.4.1 0 .3-.2.2-.4"></path>
            <path id="Fill-94_1_" class="st24" d="M17.1-185c-.2 0-.2.5 0 .5.4-.1.4-.5 0-.5"></path>
            <path id="Fill-96_1_" class="st24" d="M19.5-183.8c-.1-.3-.5-.3-.6 0v.2c0 .2.1.3.3.3.2 0 .3-.1.3-.3.1-.1.1-.2 0-.2"></path>
            <path id="Fill-98_1_" class="st24" d="M3.8-186.8c-.2 0-.2.4 0 .4.2.1.2-.4 0-.4"></path>
            <path id="Fill-100_1_" class="st24" d="M3.8-185.2c-.4 0-.4.6 0 .6.4-.1.4-.6 0-.6"></path>
            <path id="Fill-102_1_" class="st24" d="M5.7-183.2c-.6 0-.6.6 0 .6.4 0 .4-.6 0-.6"></path>
            <path id="Fill-104_1_" class="st24" d="M5.2-185.2c-.4 0-.4.5 0 .5.5 0 .5-.5 0-.5"></path>
            <path id="Fill-106_1_" class="st22" d="M11.1-187.5c-2.9-.1-6-.7-5 2.1 1 2.7 1.7 4.3 3.5 4.3 1.7 0 3.6-1.5 4.5-2.8 1.2-1.9.6-3.5-3-3.6"></path>
            <path id="Fill-108_1_" class="st6" d="M10.7-186.7c.2 0-2.9-.3-3.4.1-.4.4.2 2.9 1.4 3.9 0 .1-2.4-4.2 2-4"></path>
            <path id="Fill-110_1_" class="st25" d="M32.7-213.9c-.9.1-1.8.3-2.6.8.2-1 .4-2.1.7-3.1.1-.3-.2-.5-.5-.4-.9.5-1.8.8-2.8 1.2-.2.1-.1.4.1.3.8-.3 1.6-.4 2.4-.6-.3 1.1-.5 2.2-.7 3.3-.1.3.3.6.6.3.9-.8 2-.7 3-1.2.3-.2.1-.6-.2-.6"></path>
            <path id="Fill-112_1_" class="st25" d="M31.4-215.2c-.8.5-1.6 1-2.4 1.3-.2.1-.1.3.1.3.9-.2 1.8-.7 2.6-1.2.1-.2-.1-.5-.3-.4"></path>
            <path id="Fill-114_1_" class="st25" d="M34.9-218.2c-.6.3-1.3.6-1.9.9.1-1.1.2-2.3.8-3.2.1-.2 0-.4-.2-.4-.9.1-1.7.6-2.4 1.2-.1.1 0 .3.2.2.6-.3 1.1-.7 1.7-.8-.5 1.1-.6 2.4-.6 3.6 0 .3.3.4.5.2.7-.6 1.7-.6 2.3-1.3.1-.2-.1-.5-.4-.4"></path>
            <path id="Fill-116_1_" class="st25" d="M34.3-219.8c-.7.5-1.3 1-2.2 1.1-.2 0-.2.3 0 .3.9.1 1.9-.3 2.4-1 .2-.3 0-.6-.2-.4"></path>
            <path id="Fill-118_1_" class="st25" d="M39.1-222.2c-1 .2-2 .7-2.9 1.2.2-1.1.4-2.1.7-3.1.1-.2-.1-.4-.3-.3-.7.3-1.4.3-2.1.7-.2.1 0 .4.2.3.5-.2 1.1-.3 1.6-.4-.3 1.1-.5 2.2-.7 3.3 0 .2.2.5.4.3 1.1-.6 2.3-.9 3.3-1.5.3-.1.1-.5-.2-.5"></path>
            <path id="Fill-120_1_" class="st25" d="M37.5-223.2c-.9.1-1.7.5-2.5.7-.2.1-.1.3.1.2.8-.1 1.8-.2 2.6-.5.2 0 .1-.4-.2-.4"></path>
            <path id="Fill-122_1_" class="st25" d="M41.5-224c-.4 0-.4.7 0 .7.6 0 .6-.7 0-.7"></path>
            <path id="Fill-124_1_" class="st25" d="M43.8-225.5c-.8 0-.8.9 0 .9.4 0 .4-.9 0-.9"></path>
            <path id="Fill-126_1_" class="st25" d="M44.9-227c0-.2-.1-.3-.2-.4-.1-.1-.3-.2-.5-.1s-.4.3-.4.5.2.4.4.5c.2.1.4 0 .5-.1.1-.1.2-.2.2-.4"></path>
          </g>
        </g>
        <path class="st6" d="M180 27.3c.5.8-.1 2.1-1.2 1.8C164 26 148 16.5 143 1.5c-.4 1.5-.9 3-1.7 4.5-.9 1.7-3.2.6-2.9-1 1.1-3.5 2.5-7.6 1.8-11.3-.2-.9.3-1.5.9-1.9.7-.4 1.6-.5 2.3-.2 2.2.8 4.2 2.7 6.1 4.1 2 1.4 4.3 2.6 6.1 4.4 1.5 1.5.5 5.2-2.1 4.3-2.3-.8-4.3-2.1-6.2-3.5 4.6 13.7 18.9 22.2 32.1 26 .2-.1.4.1.6.4z"></path>
        <g id="Group-24_1_" transform="translate(0 25)">
          <linearGradient id="SVGID_1_" gradientUnits="userSpaceOnUse" x1="-112.8" y1="400.41" x2="-112.8" y2="399.9" gradientTransform="matrix(128.6298 0 0 -136.2489 14606.315 54331.52)">
            <stop offset="0" stop-color="#deebfb"></stop>
            <stop offset="1" stop-color="#eaf3ff" stop-opacity="0"></stop>
          </linearGradient>
          <path d="M32.5-171.4c1 .8 2.3 1.2 3.7 1.2 1.4 0 2.7-.5 3.7-1.2v3.4h-7.4v-3.4zm74.1-23.9l.1 33.9h-2.1c-.4 0-.6.3-.6.6 0 .4.3.6.6.6h.2v6.8h-8.7v-48.8l-18.3 8.6v40.2H68v-40.2h.2c.3 0 .6-.3.6-.6s-.2-.6-.6-.6h-3v-14.6h.1c.3 0 .5-.2.5-.5s-.2-.5-.5-.5H62v-9.9h.1c.2 0 .3-.2.3-.3 0-.2-.2-.3-.3-.3h-2.2c-.2-3.7-3.3-6.7-7.1-6.7s-6.8 2.9-7.1 6.7h-2.2c-.2 0-.3.1-.3.3 0 .2.2.3.3.3h.1v9.9h-3.3c-.2 0-.5.2-.5.5s.2.5.5.5h.1v14.6h-3c-.3 0-.6.3-.6.6s.2.6.6.6h.2v40.2h-2.5c-.4 0-.6.3-.6.6s.3.6.6.6h.2v60.8h125.2v-55.4h.1c.2 0 .4-.2.4-.4s-.2-.4-.4-.4h-8.5v-3.5c1.2-1 1.9-2.6 1.9-4.3 0-3.2-2.6-5.7-5.7-5.7-3.2 0-5.7 2.6-5.7 5.7 0 1.7.7 3.2 1.9 4.3v3.5h-6.8c-.2 0-.4.2-.4.4s.2.4.4.4h.1v21.6h-6.7v-35.1h.2c.4 0 .6-.3.6-.6 0-.4-.3-.6-.6-.6h-2.1v-23.3l.1-1.7-22.7-8.8z" fill="url(#SVGID_1_)"></path>
          <path id="Fill-3_1_" class="st4" d="M128.3-91.2h39.6v-104.4h-39.6z"></path>
          <path id="Fill-5_1_" class="st22" d="M128.3-91.2h39.6v-8.3h-39.6z"></path>
          <path id="Fill-7_1_" class="st27" d="M128.3-195.6h39.6l-19.8-16.5z"></path>
          <path class="st28" d="M148.1-212.1l-19.8 16.5h39.6l-19.8-16.5zm0 2.5l14.5 12.1h-29.1l14.6-12.1z"></path>
          <g id="Group-13_1_" transform="translate(148.104 39.473)" class="st29">
            <path id="Fill-9_1_" class="st30" d="M-2.6-216.4h5.3V-227h-5.3z"></path>
            <path id="Fill-11_1_" class="st30" d="M6.6-216.4h5.3V-227H6.6z"></path>
            <path class="st30" d="M-11.8-216.4h5.3V-227h-5.3z"></path>
          </g>
          <g id="Group-21_1_" transform="translate(148.104 31.578)" class="st29">
            <path class="st30" d="M-7.6-222.5h2.5v-4.6h-2.5zM.9-222.5h2.5v-4.6H.9zM-3.3-222.5h2.4v-4.6h-2.4zM-11.8-222.5h2.5v-4.6h-2.5z"></path>
            <path id="Fill-19_1_" class="st30" d="M5.2-222.5h2.4v-4.6H5.2z"></path>
            <path id="Fill-20_1_" class="st30" d="M9.4-222.5h2.5v-4.6H9.4z"></path>
          </g>
          <g id="Group-26_1_" transform="translate(148.104 52.795)" class="st29">
            <path id="Fill-22_1_" class="st30" d="M-2.6-225.2h5.3v-2.1h-5.3z"></path>
            <path id="Fill-24_1_" class="st30" d="M6.6-225.2h5.3v-2.1H6.6z"></path>
            <path id="Fill-25_1_" class="st30" d="M-11.8-225.2h5.3v-2.1h-5.3z"></path>
          </g>
          <g id="Group-31_1_" transform="translate(148.104 57.236)" class="st29">
            <path id="Fill-27_1_" class="st30" d="M-2.6-216.6h5.3v-10.6h-5.3z"></path>
            <path id="Fill-29_1_" class="st30" d="M6.6-216.6h5.3v-10.6H6.6z"></path>
            <path id="Fill-30_1_" class="st30" d="M-11.8-216.6h5.3v-10.6h-5.3z"></path>
          </g>
          <g id="Group-36_1_" transform="translate(148.104 70.558)" class="st29">
            <path id="Fill-32_1_" class="st30" d="M-2.6-225.4h5.3v-2h-5.3z"></path>
            <path id="Fill-34_1_" class="st30" d="M6.6-225.4h5.3v-2H6.6z"></path>
            <path id="Fill-35_1_" class="st30" d="M-11.8-225.4h5.3v-2h-5.3z"></path>
          </g>
          <g id="Group-41_1_" transform="translate(148.104 75)" class="st29">
            <path id="Fill-37_1_" class="st30" d="M-2.6-216.8h5.3v-10.6h-5.3z"></path>
            <path id="Fill-39_1_" class="st30" d="M6.6-216.8h5.3v-10.6H6.6z"></path>
            <path id="Fill-40_1_" class="st30" d="M-11.8-216.8h5.3v-10.6h-5.3z"></path>
          </g>
          <g id="Group-46_1_" transform="translate(148.104 87.828)" class="st29">
            <path id="Fill-42_1_" class="st30" d="M-2.6-225.1h5.3v-2h-5.3z"></path>
            <path id="Fill-44_1_" class="st30" d="M6.6-225.1h5.3v-2H6.6z"></path>
            <path id="Fill-45_1_" class="st30" d="M-11.8-225.1h5.3v-2h-5.3z"></path>
          </g>
          <g id="Group-51_1_" transform="translate(148.104 92.269)" class="st29">
            <path id="Fill-47_1_" class="st30" d="M-2.6-216.5h5.3v-10.6h-5.3z"></path>
            <path id="Fill-49_1_" class="st30" d="M6.6-216.5h5.3v-10.6H6.6z"></path>
            <path id="Fill-50_1_" class="st30" d="M-11.8-216.5h5.3v-10.6h-5.3z"></path>
          </g>
          <g transform="translate(148.104 105.591)" class="st29">
            <path id="Fill-52_1_" class="st31" d="M-2.6-225.3h5.3v-2h-5.3z"></path>
            <path class="st31" d="M6.6-225.3h5.3v-2H6.6z"></path>
            <path id="Fill-55_1_" class="st31" d="M-11.8-225.3h5.3v-2h-5.3z"></path>
          </g>
          <g id="Group-61_1_" transform="translate(148.104 110.032)" class="st29">
            <path class="st31" d="M-2.6-216.7h5.3v-10.6h-5.3z"></path>
            <path id="Fill-59_1_" class="st31" d="M6.6-216.7h5.3v-10.6H6.6z"></path>
            <path class="st31" d="M-11.8-216.7h5.3v-10.6h-5.3z"></path>
          </g>
          <g id="Group-66_1_" transform="translate(148.104 122.86)" class="st29">
            <path id="Fill-62_1_" class="st31" d="M-2.6-225h5.3v-2h-5.3z"></path>
            <path id="Fill-64_1_" class="st31" d="M6.6-225h5.3v-2H6.6z"></path>
            <path id="Fill-65_1_" class="st31" d="M-11.8-225h5.3v-2h-5.3z"></path>
          </g>
          <path d="M8.9-226.9c-4.2.7-8.5 3.2-10.3 7.7-1.3 3.4-.9 7.4-2.1 10.9-1.2 3.8-4 6.5-6 9.8-2 3.3-3 8.5-.6 11.5h49.4c.3-3.4-1.7-6.9-4.5-7.9-1.5-.6-3.4-.7-4.1-2.4-.4-.9-.2-2-.1-3 .2-3.4-1.1-6.9-3.4-8.9-1.4-1.2-3.2-2-4.2-3.7-1.3-2.1-1-5-1.7-7.5-1.3-4.7-5.8-6.7-10.1-6.7-.8 0-1.6.1-2.3.2" fill-rule="evenodd" clip-rule="evenodd" fill="#00eab1" transform="translate(138.455 95.723)" id="Group-72_1_"></path>
          <g id="Group-82_1_" transform="translate(21.475 46.56)">
            <path id="Fill-73_1_" class="st6" d="M135.3-163.2c-.5 1-1.5 1.7-2.5 2.2.4-1.6.7-3.3.7-4.8 0-.4-.6-.4-.6 0-.1 4.5-1.8 8.3-4.8 11.6v-.1c-.1-5.1.2-10.4-.9-15.4 0-.1-.2-.1-.2 0 .3 3 .4 6 .4 9-2.8-.7-4.9-2.3-6.9-4.3-.1-.1-.2 0-.1.1 1.7 2.1 4.3 4 7 4.6 0 2.2 0 4.5-.1 6.7 0 1.7 0 3.4.1 5.1-4.6-1.1-7.9-4.5-9.7-8.8-.1-.1-.2-.1-.2.1 1.6 4.7 5 8.5 10 9.4.1.7.1 1.3.2 2 .3 2.4.3 4.9.9 7.2.2.6 1.1.4 1-.3-.6-2.3-.6-4.8-1-7.1-.1-.6-.2-1.3-.2-1.9v-.3c-.2-1.8-.2-3.7-.3-5.5 2.3-1.7 3.8-4.2 4.6-7 1.3-.4 2.4-1.1 3.2-2.2.2-.3-.4-.6-.6-.3"></path>
            <path id="Fill-75_1_" class="st4" d="M-9-137.8h79.9v-48.1H-9z"></path>
            <path id="Fill-77_1_" class="st28" d="M40.2-185.9h33.3v-21.4H40.2z"></path>
            <path class="st28" d="M-11.6-181.3h85.1v-4.6h-85.1z"></path>
            <path id="Fill-79_1_" class="st28" d="M17.1-227.5l-28.4 20.2H-6l23.1-16.4 23.1 16.4h5.3z"></path>
            <path class="st9" d="M17.1-223.7L-6-207.3v21.4h46.2v-21.4z"></path>
            <path id="Fill-81_1_" class="st27" d="M17.1-223.7L-6-207.3v1.8l23.1-16.4 23.1 16.4v-1.8z"></path>
          </g>
          <g id="Group-85_1_" transform="translate(39.494 68.091)">
            <path class="st33" d="M-11.9-227.2v16.1l7.3-.1v-16z" id="Clip-84_1_"></path>
            <g id="Clip-84-Copy_1_">
              <linearGradient id="SVGID_2_" gradientUnits="userSpaceOnUse" x1="-141.209" y1="323.848" x2="-140.209" y2="323.848" gradientTransform="matrix(7.3257 0 0 -16.1002 1015.544 4994.833)">
                <stop offset="0" stop-color="#4786ff"></stop>
                <stop offset="1" stop-color="#609cfc"></stop>
              </linearGradient>
              <path fill-rule="evenodd" clip-rule="evenodd" fill="url(#SVGID_2_)" d="M-18.9-227.2v16.1l7.3-.1v-16z"></path>
            </g>
          </g>
          <path class="st33" d="M20.3-143.1h7.3v-16h-7.3z"></path>
          <path class="st1" d="M34.9-159.2h-7.3v16.1h7.3v-16.1zm-1.2 1.3v13.6h-4.8v-13.6h4.8z"></path>
          <path class="st1" d="M20.3-143.1h7.3v-16.1h-7.3v16.1zm1.2-1.2h4.8v-13.6h-4.8v13.6z"></path>
          <path class="st1" d="M21.5-151.6v.8h4.8v-.8z"></path>
          <path id="Fill-93_1_" class="st1" d="M28.9-150.8h4.8v-.8h-4.8z"></path>
          <g id="Group-97_1_" transform="translate(61.216 68.091)">
            <path id="Fill-95_1_" class="st33" d="M-11.8-227.2v16.1l7.3-.1v-16z"></path>
          </g>
          <g id="Group-97-Copy_1_" transform="translate(54.058 68.091)">
            <linearGradient id="SVGID_3_" gradientUnits="userSpaceOnUse" x1="-155.772" y1="323.848" x2="-154.772" y2="323.848" gradientTransform="matrix(7.3252 0 0 -16.1002 1129.276 4994.833)">
              <stop offset="0" stop-color="#4786ff"></stop>
              <stop offset="1" stop-color="#609cfc"></stop>
            </linearGradient>
            <path fill-rule="evenodd" clip-rule="evenodd" fill="url(#SVGID_3_)" d="M-11.8-227.2v16.1l7.3-.1v-16z"></path>
          </g>
          <path class="st33" d="M42.1-143.1h7.3v-16h-7.3z"></path>
          <path class="st1" d="M56.8-159.2h-7.3v16.1h7.3v-16.1zm-1.3 1.3v13.6h-4.8v-13.6h4.8zM42.1-143.1h7.3v-16.1h-7.3v16.1zm1.3-1.2h4.8v-13.6h-4.8v13.6z"></path>
          <path class="st1" d="M43.4-151.6v.8h4.8v-.8z"></path>
          <path id="Fill-105_1_" class="st1" d="M50.7-150.8h4.8v-.8h-4.8z"></path>
          <path class="st28" d="M112.3-142.9l-35.3 25h6.6l28.7-20.3 28.7 20.3h6.5z"></path>
          <path id="Fill-107_1_" class="st9" d="M112.3-138.2l-28.7 20.3v26.7H141v-26.7z"></path>
          <path class="st27" d="M112.3-138.2l-28.7 20.3v1.9l28.7-20.4L141-116v-1.9z"></path>
          <path id="Fill-109_1_" class="st1" d="M92.2-91.2h40.1v-29.1H92.2z"></path>
          <path class="st30" d="M94.1-91.2h36.4v-27.2H94.1z"></path>
          <path id="Fill-111_1_" class="st36" d="M94.1-115.3h36.4v-.6H94.1z"></path>
          <path class="st36" d="M94.1-112.4h36.4v-.6H94.1z"></path>
          <path id="Fill-113_1_" class="st36" d="M94.1-109.6h36.4v-.6H94.1z"></path>
          <path class="st36" d="M94.1-106.8h36.4v-.5H94.1z"></path>
          <path id="Fill-115_1_" class="st36" d="M94.1-103.9h36.4v-.6H94.1z"></path>
          <path class="st36" d="M94.1-101.1h36.4v-.5H94.1z"></path>
          <path id="Fill-117_1_" class="st36" d="M94.1-98.2h36.4v-.6H94.1z"></path>
          <path class="st36" d="M94.1-95.4h36.4v-.6H94.1z"></path>
          <path id="Fill-119_1_" class="st36" d="M94.1-92.5h36.4v-.6H94.1z"></path>
          <g id="Group-123_1_" transform="translate(53.811 104.11)">
            <path id="Fill-121_1_" class="st8" d="M15.8-227.1h-27.5v23.2h7.3l12.9-.1v.1h7.3l7.4-.1v-23.1z"></path>
          </g>
          <g id="Group-134_1_" transform="translate(31.102 104.358)">
            <path class="st1" d="M39.4-205.3v-6.4h5.4v6.4h-5.4zm-13.5 0v-6.4h5.5v6.4h-5.5zm-6.8 0h5.5v-6.4h-5.5v6.4zm-7 0h5.8v-6.4h-5.8v6.4zm5.7-21v6.4H12v-6.4h5.8zm6.8 0v6.4h-5.5v-6.4h5.5zm6.8 0v6.4h-5.5v-6.4h5.5zm6.7 0v6.4h-5.5v-6.4h5.5zm6.7 0v6.4h-5.4v-6.4h5.4zm-5.4 13.8h5.4v-6.4h-5.4v6.4zM25.9-219h5.5v6.4h-5.5v-6.4zm-13.8 6.5h5.8v-6.4h-5.8v6.4zm7 0h5.5v-6.4h-5.5v6.4zm13.5 0h5.5v-6.4h-5.5v6.4zm0 7.2h5.5v-6.4h-5.5v6.4zM11-227.4v23.2h34.9v-23.2H11zM-10.8-197.7H3.8v-29.4h-14.6z"></path>
            <path id="Fill-128_1_" class="st28" d="M-9.9-197.7H2.9v-28.5H-9.9z"></path>
            <path id="Fill-129_1_" class="st37" d="M-7.8-208.3H.3v-8.1h-8.1z"></path>
            <path id="Fill-130_1_" class="st37" d="M-7.8-218.4H.3v-4h-8.1z"></path>
            <path id="Fill-131_1_" class="st37" d="M-7.8-200.9H.3v-4h-8.1z"></path>
            <path id="Fill-132_1_" d="M2.7-210.9c0 .5-.4.8-.8.8-.5 0-.8-.4-.8-.8 0-.5.4-.8.8-.8.4-.1.8.3.8.8" fill-rule="evenodd" clip-rule="evenodd" fill="#ddd6ca"></path>
            <path id="Fill-133_1_" fill-rule="evenodd" clip-rule="evenodd" fill="#8995a4" d="M-11.7-195.6H4.7v-2.1h-16.4z"></path>
          </g>
          <g id="Group-137_1_" transform="translate(10.367 112.499)">
            <defs>
              <filter id="Adobe_OpacityMaskFilter_6_" filterUnits="userSpaceOnUse" x="-12" y="-227.4" width="17.9" height="23.7">
                <feColorMatrix values="1 0 0 0 0 0 1 0 0 0 0 0 1 0 0 0 0 0 1 0"></feColorMatrix>
              </filter>
            </defs>
            <mask maskUnits="userSpaceOnUse" x="-12" y="-227.4" width="17.9" height="23.7" id="mask-22_1_">
              <g filter="url(#Adobe_OpacityMaskFilter_6_)">
                <path id="path-21_1_" class="st1" d="M-5.3-227.4c-2.2.3-.6 13.9-.6 13.9-1.2-2.2-2.8-4.7-5-4.5-.3 0-.6.1-.8.3-.5.5-.2 1.5 0 2.2 1.5 3.8 3.2 8.4 5.6 11.7H6c-.3-5-.8-9.9-1.5-14.8-.3-1.8-.7-4.8-2.2-4.4-2.1.5-2.5 8.4-1.2 13.4-1.7-5.9-3-10-4.6-15.9-.2-.9-.7-1.9-1.4-1.9h-.4"></path>
              </g>
            </mask>
            <path id="Fill-135_1_" d="M-5.3-227.4c-2.2.3-.6 13.9-.6 13.9-1.2-2.2-2.8-4.7-5-4.5-.3 0-.6.1-.8.3-.5.5-.2 1.5 0 2.2 1.5 3.8 3.2 8.4 5.6 11.7H6c-.3-5-.8-9.9-1.5-14.8-.3-1.8-.7-4.8-2.2-4.4-2.1.5-2.5 8.4-1.2 13.4-1.7-5.9-3-10-4.6-15.9-.2-.9-.7-1.9-1.4-1.9h-.4" mask="url(#mask-22_1_)" fill-rule="evenodd" clip-rule="evenodd" fill="#00eab1"></path>
          </g>
          <g id="Group-143_1_" transform="translate(0 137.663)">
            <g id="Group-140_1_">
              <path id="Fill-138_1_" class="st5" d="M184.2-215.7H-7c-2.8 0-5-2.6-5-5.7 0-3.2 2.3-5.7 5-5.7h191.2c2.8 0 5 2.6 5 5.7.1 3.1-2.2 5.7-5 5.7"></path>
            </g>
            <path id="Stroke-141_1_" d="M-2.6-221.5H182" fill="none" stroke="#fff" stroke-width="1.346" stroke-dasharray="5.386"></path>
          </g>
        </g>
        <g id="Group-4_1_" transform="translate(229)">
          <path id="Fill-1-Copy-5_1_" class="st8" d="M339.7-201.6c.6-.4 1.5-.2 1.5.7-.8 11.4-6.2 24.2-16.9 29.6 1.2.1 2.4.4 3.5.8 1.4.5.8 2.3-.4 2.2-2.7-.5-5.9-1-8.7-.1-.6.2-1.2 0-1.5-.5-.4-.5-.5-1.1-.4-1.7.4-1.7 1.6-3.4 2.4-5 .9-1.7 1.5-3.5 2.7-5 1-1.3 3.8-.9 3.4 1.1-.3 1.8-1.1 3.4-2 5 9.8-4.8 14.6-16.4 16-26.7.1 0 .2-.2.4-.4z"></path>
          <path id="Stroke-128_1_" class="st43" d="M15.1-9.3"></path>
          <path id="Stroke-132_1_" class="st43" d="M363.7-32.1"></path>
          <g id="Fill-134_1_">
            <path id="path-23_1_" class="st44" d="M391.8-3.6c0 17.6-14.2 31.8-31.8 31.8S328.2 14 328.2-3.6s14.2-31.8 31.8-31.8c17.5-.1 31.8 14.2 31.8 31.8"></path>
            <path d="M390.7-3.6c0-17-13.8-30.8-30.8-30.8s-30.8 13.8-30.8 30.8 13.8 30.8 30.8 30.8c17-.1 30.8-13.8 30.8-30.8z" fill-rule="evenodd" clip-rule="evenodd" fill="#fff" stroke="#eaf3ff" stroke-width="2.09"></path>
          </g>
          <g id="Group-145_1_" transform="translate(356.25 208.186)">
            <path id="Fill-142_1_" class="st1" d="M-11.7-215.9v-4.6c0-1.5 1.1-2.8 2.7-3l24.5-3.2c2.2-.3 4.2 1.5 4.2 3.7v24.2c0 2.3-2 4-4.2 3.7L-9-198.3c-1.5-.2-2.7-1.5-2.7-3"></path>
            <path id="Stroke-144_1_" d="M-11.7-215.9v-4.6c0-1.5 1.1-2.8 2.7-3l24.5-3.2c2.2-.3 4.2 1.5 4.2 3.7v24.2c0 2.3-2 4-4.2 3.7L-9-198.3c-1.5-.2-2.7-1.5-2.7-3" fill="none" stroke="#4b6584" stroke-width="1.425" stroke-linecap="round" stroke-linejoin="round"></path>
          </g>
          <g id="Group-149_1_" transform="translate(356.25 213.886)">
            <path id="Fill-146_1_" class="st1" d="M19.6-227.2l-31.3 3"></path>
            <path id="Stroke-148_1_" class="st47" d="M19.6-227.2l-31.3 3"></path>
          </g>
          <path id="Fill-150_1_" class="st48" d="M368-15.5c0 .5-.4 1-1 1-.5 0-.9-.4-.9-1 0-.5.4-.9.9-.9.6-.1 1 .4 1 .9"></path>
          <path id="Fill-156_1_" class="st49" d="M359.5 4.7v-9.1c0-1.5-1.4-2.7-3-2.6l-3.1.3c-1.4.1-2.4 1.2-2.4 2.6v8.6c0 1.4 1.1 2.5 2.5 2.6l3.1.2c1.5.1 2.9-1.1 2.9-2.6"></path>
          <path id="Fill-158_1_" class="st1" d="M369.9-7.6V5.1c0 1.4-1.2 2.4-2.5 2.2l-3.2-.5c-1.1-.2-1.9-1.1-1.9-2.2V-7.1c0-1.1.8-2 1.9-2.2l3.2-.5c1.3-.2 2.5.8 2.5 2.2"></path>
          <path id="Stroke-160_1_" class="st47" d="M369.9-7.6V5.1c0 1.4-1.2 2.4-2.5 2.2l-3.2-.5c-1.1-.2-1.9-1.1-1.9-2.2V-7.1c0-1.1.8-2 1.9-2.2l3.2-.5c1.3-.2 2.5.8 2.5 2.2z"></path>
          <path id="Fill-162_1_" class="st1" d="M347.1-2.9v5.1c0 1.3-1.2 2.4-2.5 2.2l-2.4-.4c-1-.2-1.8-1.1-1.8-2.2v-4.3c0-1.1.8-2 1.8-2.2l2.4-.4c1.3-.1 2.5.9 2.5 2.2"></path>
          <path id="Stroke-164_1_" class="st47" d="M347.1-2.9v5.1c0 1.3-1.2 2.4-2.5 2.2l-2.4-.4c-1-.2-1.8-1.1-1.8-2.2v-4.3c0-1.1.8-2 1.8-2.2l2.4-.4c1.3-.1 2.5.9 2.5 2.2z"></path>
          <g id="Group-169_1_" transform="translate(351.5 211.986)">
            <path id="Fill-166_1_" class="st1" d="M-8.9-226.8h-2.7"></path>
            <path id="Stroke-168_1_" class="st50" d="M-8.9-226.8h-2.7"></path>
          </g>
          <g id="Group-173_1_" transform="translate(357.2 206.286)">
            <path id="Fill-170_1_" class="st1" d="M-11.5-224.2v-2.7"></path>
            <path id="Stroke-172_1_" class="st50" d="M-11.5-224.2v-2.7"></path>
          </g>
          <g id="Group-177_1_" transform="translate(353.4 208.186)">
            <path id="Fill-174_1_" class="st1" d="M-9.3-224.9l-2-1.9"></path>
            <path id="Stroke-176_1_" class="st50" d="M-9.3-224.9l-2-1.9"></path>
          </g>
          <path id="Fill-178_1_" class="st48" d="M357.6 3v-8.5c0-1.4-1.2-2.6-2.7-2.4l-2.8.3c-1.2.1-2.1 1.2-2.1 2.4v8c0 1.3 1 2.3 2.2 2.4l2.8.2c1.4.1 2.6-1 2.6-2.4"></path>
          <path id="Stroke-180_1_" class="st51" d="M357.6 3v-8.5c0-1.4-1.2-2.6-2.7-2.4l-2.8.3c-1.2.1-2.1 1.2-2.1 2.4v8c0 1.3 1 2.3 2.2 2.4l2.8.2c1.4.1 2.6-1 2.6-2.4z"></path>
          <g id="Group-185_1_" transform="translate(364.8 222.436)">
            <path id="Fill-182_1_" class="st1" d="M-11.7-226.7l2.5-.3"></path>
          </g>
          <path id="Stroke-188_1_" class="st52" d="M352.8-1.7h1.9"></path>
          <path id="Stroke-192_1_" class="st52" d="M352.8 1l1.9.2"></path>
          <g id="Group-193_1_" transform="translate(364.8 229.136)">
            <path id="Fill-190_1_" class="st1" d="M-11.7-226.5l2.5.2"></path>
          </g>
          <g id="Fill-194_1_">
            <path id="path-25_1_" class="st44" d="M273-188.9c0 17.6-14.2 31.8-31.8 31.8s-31.8-14.2-31.8-31.8 14.2-31.8 31.8-31.8 31.8 14.2 31.8 31.8"></path>
            <path class="st53" d="M272.5-188.9c0-17.3-14-31.3-31.3-31.3s-31.3 14-31.3 31.3 14 31.3 31.3 31.3 31.3-14 31.3-31.3z"></path>
          </g>
          <path id="Stroke-196_1_" class="st54" d="M273-188.9c0 17.6-14.2 31.8-31.8 31.8s-31.8-14.2-31.8-31.8 14.2-31.8 31.8-31.8 31.8 14.2 31.8 31.8z"></path>
          <g id="Group-201_1_" transform="translate(235.6 22.936)">
            <path id="Fill-198_1_" class="st1" d="M-9.3-215.3s-1.4 6.5-2.1 10.8c-.7 4.3 2.5 5.4 2.5 5.4l18.4 5.4c-2.1-.9-1.4-4.4-1.4-4.4s3.6-18.7 4.8-24.1c1.2-5.5-4.2-4.7-4.2-4.7l-16.2.7"></path>
            <path id="Stroke-200_1_" class="st50" d="M-9.3-215.3s-1.4 6.5-2.1 10.8c-.7 4.3 2.5 5.4 2.5 5.4l18.4 5.4c-2.1-.9-1.4-4.4-1.4-4.4s3.6-18.7 4.8-24.1c1.2-5.5-4.2-4.7-4.2-4.7l-16.2.7"></path>
          </g>
          <path id="Fill-202_1_" class="st1" d="M247-191.3h11.7s-3.4 1.5-4.2 5.6c-.6 3.3-2.3 10.4-2.3 10.4s-1.1 5.8-6.6 4.7c0 0-2.8-.2-2-4.6.9-4.1 3.4-16.1 3.4-16.1"></path>
          <path id="Stroke-204_1_" class="st50" d="M247-191.3h11.7s-3.4 1.5-4.2 5.6c-.6 3.3-2.3 10.4-2.3 10.4s-1.1 5.8-6.6 4.7c0 0-2.8-.2-2-4.6.9-4.1 3.4-16.1 3.4-16.1z"></path>
          <path id="Fill-206_1_" class="st1" d="M224.2-195.3s-2.2-4.6 2-6.9c.7-.4 1.6-.7 2.4-.7l15.9-.7s-3.9 2.2-2.6 8.6l-17.7-.3z"></path>
          <path id="Stroke-208_1_" class="st50" d="M224.2-195.3s-2.2-4.6 2-6.9c.7-.4 1.6-.7 2.4-.7l15.9-.7s-3.9 2.2-2.6 8.6l-17.7-.3z"></path>
          <path id="Stroke-210_1_" class="st50" d="M229.3-190.1l5.7.5"></path>
          <path id="Stroke-212_1_" class="st50" d="M229.3-185.2l2.8.3"></path>
          <path id="Stroke-214_1_" class="st50" d="M228.4-180.8l4.8.9"></path>
          <path id="Fill-216_1_" class="st55" d="M251.2-180.8c0 3.7-3 6.6-6.7 6.6s-6.6-3-6.6-6.6 3-6.6 6.6-6.6c3.7-.1 6.7 2.9 6.7 6.6"></path>
          <path id="Fill-218_1_" class="st48" d="M249.3-182.7c0 3.7-3 6.6-6.7 6.6s-6.6-3-6.6-6.6c0-3.7 3-6.7 6.6-6.7 3.7 0 6.7 3 6.7 6.7"></path>
          <path id="Stroke-220_1_" class="st50" d="M249.3-182.7c0 3.7-3 6.6-6.7 6.6s-6.6-3-6.6-6.6c0-3.7 3-6.7 6.6-6.7 3.7 0 6.7 3 6.7 6.7z"></path>
          <path id="Fill-222_1_" class="st1" d="M244-181.1c.1-.1.1-.2.1-.3s-.1-.2-.2-.3c-.1-.1-.2-.2-.4-.2v1.1c.2-.1.4-.2.5-.3m-1.7-2.5c.1.1.3.2.4.2v-1.1c-.2 0-.4.1-.5.2-.1.1-.1.2-.1.4 0 .1.1.2.2.3m2.7 3.2c-.3.3-.8.5-1.4.6v.9h-.8v-.9c-.4 0-.8-.1-1.2-.2-.4-.1-.7-.3-.9-.4l.4-1c.2.2.4.3.7.4.3.1.6.2.9.2v-1.4c-.4-.1-.7-.2-1-.3-.3-.1-.5-.3-.7-.5-.2-.2-.3-.5-.3-.9s.2-.8.5-1.2c.3-.3.8-.5 1.4-.6v-.9h.8v.9c.7.1 1.2.2 1.7.5l-.4 1c-.4-.2-.8-.4-1.2-.4v1.4c.4.1.7.2 1 .3.3.1.5.3.7.5.2.2.3.5.3.9s-.2.8-.5 1.1"></path>
          <g id="Group-227_1_" transform="translate(264.1 26.736)">
            <path id="Fill-224_1_" class="st1" d="M-11.3-227h2.7"></path>
            <path id="Stroke-226_1_" class="st50" d="M-11.3-227h2.7"></path>
          </g>
          <g id="Group-231_1_" transform="translate(261.25 19.136)">
            <path id="Fill-228_1_" class="st1" d="M-11.3-224.1v-2.7"></path>
            <path id="Stroke-230_1_" class="st50" d="M-11.3-224.1v-2.7"></path>
          </g>
          <g id="Group-235_1_" transform="translate(264.1 21.986)">
            <path id="Fill-232_1_" class="st1" d="M-11.8-225l2-1.9"></path>
            <path id="Stroke-234_1_" class="st50" d="M-11.8-225l2-1.9"></path>
          </g>
          <g id="Fill-236_1_">
            <path id="path-27_1_" class="st44" d="M369.9-112.9c0 17.6-14.2 31.8-31.8 31.8s-31.8-14.2-31.8-31.8 14.2-31.8 31.8-31.8 31.8 14.2 31.8 31.8"></path>
            <path class="st53" d="M369.4-112.9c0-17.3-14-31.3-31.3-31.3s-31.3 14-31.3 31.3 14 31.3 31.3 31.3 31.3-14 31.3-31.3z"></path>
          </g>
          <path id="Stroke-238_1_" class="st54" d="M369.9-112.9c0 17.6-14.2 31.8-31.8 31.8s-31.8-14.2-31.8-31.8 14.2-31.8 31.8-31.8 31.8 14.2 31.8 31.8z"></path>
          <path id="Fill-240_1_" class="st1" d="M329.2-95.3H328c-1.5 0-2.7-1.2-2.7-2.7v-12.6c0-1.5 1.2-2.7 2.7-2.7h1.2c1.5 0 2.7 1.2 2.7 2.7V-98c0 1.5-1.2 2.7-2.7 2.7"></path>
          <path id="Stroke-242_1_" class="st51" d="M329.2-95.3H328c-1.5 0-2.7-1.2-2.7-2.7v-12.6c0-1.5 1.2-2.7 2.7-2.7h1.2c1.5 0 2.7 1.2 2.7 2.7V-98c0 1.5-1.2 2.7-2.7 2.7z"></path>
          <path id="Fill-244_1_" class="st1" d="M347.2-95.3H346c-1.5 0-2.7-1.2-2.7-2.6V-124c0-1.5 1.2-2.6 2.7-2.6h1.2c1.5 0 2.7 1.2 2.7 2.6v26c.1 1.5-1.2 2.7-2.7 2.7"></path>
          <path id="Stroke-246_1_" class="st51" d="M347.2-95.3H346c-1.5 0-2.7-1.2-2.7-2.6V-124c0-1.5 1.2-2.6 2.7-2.6h1.2c1.5 0 2.7 1.2 2.7 2.6v26c.1 1.5-1.2 2.7-2.7 2.7z"></path>
          <path id="Fill-248_1_" class="st1" d="M337.7-95.3h-1.2c-1.5 0-2.7-1.2-2.7-2.6v-19.5c0-1.4 1.2-2.6 2.7-2.6h1.2c1.5 0 2.7 1.2 2.7 2.6v19.5c.1 1.4-1.2 2.6-2.7 2.6"></path>
          <path id="Stroke-250_1_" class="st50" d="M340.5-99.9v1.9c0 1.5-1.2 2.7-2.7 2.7h-1.2c-1.5 0-2.7-1.2-2.7-2.7v-8.7"></path>
          <path id="Stroke-252_1_" class="st50" d="M333.8-116.1v-2.1c0-1.5 1.2-2.8 2.7-2.8h1.2c1.5 0 2.7 1.2 2.7 2.8v7.7"></path>
          <path id="Fill-254_1_" class="st49" d="M337.4-99.4l-5.6-4.9-6.4 6.1-1.1-2.6 7.9-7 5.4 4.9 11-10.3-1.4-1.6 1.3-.3 5.3-1.1-1.7 5.2-.4 1.3-1.5-1.6z"></path>
          <path id="Fill-256_1_" class="st11" d="M332.7-112.5l5.6 4.2 11.2-9.5-1.7-1.7 6.9-1.4-1.7 6.8-1.4-1.6-13.7 12.4-5-4.6-7.6 7.4c.3.5.4 1.1.4 1.7 0 2-1.6 3.6-3.6 3.6s-3.6-1.6-3.6-3.6 1.6-3.6 3.6-3.6c.5 0 .6.1 1 .3l9.6-10.4z"></path>
          <path id="Stroke-258_1_" class="st50" d="M332.7-112.5l5.6 4.2 11.2-9.5-1.7-1.7 6.9-1.4-1.7 6.8-1.4-1.6-13.7 12.4-5-4.6-7.6 7.4c.3.5.4 1.1.4 1.7 0 2-1.6 3.6-3.6 3.6s-3.6-1.6-3.6-3.6 1.6-3.6 3.6-3.6c.5 0 .6.1 1 .3l9.6-10.4z"></path>
          <g id="Group-263_1_" transform="translate(366.7 101.786)">
            <path id="Fill-260_1_" class="st1" d="M-11.3-226.3h2.7"></path>
            <path id="Stroke-262_1_" class="st50" d="M-11.3-226.3h2.7"></path>
          </g>
          <g id="Group-267_1_" transform="translate(362.9 97.036)">
            <path id="Fill-264_1_" class="st1" d="M-11.2-224.5v-2.7"></path>
            <path id="Stroke-266_1_" class="st50" d="M-11.2-224.5v-2.7"></path>
          </g>
          <g id="Group-271_1_" transform="translate(365.75 98.936)">
            <path id="Fill-268_1_" class="st1" d="M-11.7-225.2l2-1.9"></path>
            <path id="Stroke-270_1_" class="st50" d="M-11.7-225.2l2-1.9"></path>
          </g>
          <g id="Fill-272_1_">
            <path id="path-29_1_" class="st44" d="M155.2-181.3c0 17.6-14.2 31.8-31.8 31.8s-31.8-14.2-31.8-31.8 14.2-31.8 31.8-31.8 31.8 14.2 31.8 31.8"></path>
            <path class="st53" d="M154.7-181.3c0-17.3-14-31.3-31.3-31.3s-31.3 14-31.3 31.3 14 31.3 31.3 31.3 31.3-14 31.3-31.3z"></path>
          </g>
          <path id="Stroke-274_1_" class="st54" d="M155.2-181.3c0 17.6-14.2 31.8-31.8 31.8s-31.8-14.2-31.8-31.8 14.2-31.8 31.8-31.8 31.8 14.2 31.8 31.8z"></path>
          <path id="Fill-276_1_" class="st1" d="M128.9-162.8l-11.3-1.7c-2.2-.3-3.4-1.5-3.4-3.4v-23.9c0-1.9 1.6-3.1 3.4-3.4l11.3-1.7c1.9-.2 3.4 1.5 3.4 3.4v27.3c0 1.9-1.5 3.7-3.4 3.4"></path>
          <path id="Stroke-278_1_" class="st50" d="M128.9-162.8l-11.3-1.7c-2.2-.3-3.4-1.5-3.4-3.4v-23.9c0-1.9 1.6-3.1 3.4-3.4l11.3-1.7c1.9-.2 3.4 1.5 3.4 3.4v27.3c0 1.9-1.5 3.7-3.4 3.4z"></path>
          <path id="Stroke-280_1_" class="st50" d="M114.2-190.3l18-1.9"></path>
          <path id="Stroke-282_1_" class="st50" d="M114.2-169.4l15.2 1.9"></path>
          <path id="Fill-284_1_" d="M123.7-165.6c0 .5-.4.9-1 .9-.5 0-.9-.4-.9-.9s.4-.9.9-.9c.6-.1 1 .4 1 .9" fill-rule="evenodd" clip-rule="evenodd" fill="#4dbbf7"></path>
          <g id="Group-289_1_" transform="translate(131.9 33.386)">
            <path id="Fill-286_1_" class="st1" d="M-11.4-226.4l3-.3"></path>
            <path id="Stroke-288_1_" class="st50" d="M-11.4-226.4l3-.3"></path>
          </g>
          <g id="Group-293_1_" transform="translate(136.65 33.386)">
            <path id="Fill-290_1_" class="st1" d="M-11.6-227l.8-.1"></path>
            <path id="Stroke-292_1_" class="st50" d="M-11.6-227l.8-.1"></path>
          </g>
          <g id="Group-297_1_" transform="translate(119.55 33.386)">
            <path id="Fill-294_1_" class="st1" d="M-8.7-227h-2.8"></path>
            <path id="Stroke-296_1_" class="st50" d="M-8.7-227h-2.8"></path>
          </g>
          <g id="Group-301_1_" transform="translate(125.25 27.686)">
            <path id="Fill-298_1_" class="st1" d="M-11.2-224.5v-2.8"></path>
            <path id="Stroke-300_1_" class="st50" d="M-11.2-224.5v-2.8"></path>
          </g>
          <g id="Group-305_1_" transform="translate(121.45 29.586)">
            <path id="Fill-302_1_" class="st1" d="M-9.1-225.2l-2.1-1.9"></path>
            <path id="Stroke-304_1_" class="st50" d="M-9.1-225.2l-2.1-1.9"></path>
          </g>
          <path id="Fill-306_1_" class="st55" d="M129.4-179.9v7.6l-4-.3v-2.3c0-.2-.2-.4-.4-.4l-1.3-.1c-.2 0-.4.2-.4.4v2.3l-3.4-.3v-6.7l4.4-4.8 5.1 4.6z"></path>
          <path id="Fill-308_1_" class="st11" d="M128.5-181.2v7l-3.6-.3v-2.1c0-.2-.2-.4-.4-.4l-1.7-.1c-.2 0-.4.2-.4.3v2.1l-3.4-.3v-6.2l4.4-4.4 5.1 4.4z"></path>
          <path id="Stroke-310_1_" class="st50" d="M128.5-181.2v7l-3.6-.3v-2.1c0-.2-.2-.4-.4-.4l-1.7-.1c-.2 0-.4.2-.4.3v2.1l-3.4-.3v-6.2l4.4-4.4 5.1 4.4z"></path>
          <path id="Stroke-312_1_" class="st50" d="M126.1-182.7v-2.9 2.9z"></path>
          <g id="Fill-314_1_">
            <path id="path-31_1_" class="st44" d="M66.9-99.6C66.9-82 52.6-67.8 35-67.8 17.4-67.8 3.2-82 3.2-99.6s14.2-31.8 31.8-31.8 31.9 14.2 31.9 31.8"></path>
            <path class="st53" d="M66.3-99.6c0-17.3-14-31.3-31.3-31.3s-31.3 14-31.3 31.3 14 31.3 31.3 31.3 31.3-14 31.3-31.3z"></path>
          </g>
          <path id="Stroke-316_1_" class="st54" d="M66.9-99.6C66.9-82 52.6-67.8 35-67.8 17.4-67.8 3.2-82 3.2-99.6s14.2-31.8 31.8-31.8 31.9 14.2 31.9 31.8z"></path>
          <path id="Fill-318_1_" class="st1" d="M41.1-111.4c-3.9-2.2-22.3-.8-26.2 3.7-4.2 4.8-1.9 18.1 3.3 20.6 2.3 1.1 6.9.9 11.5.1.8 1.1 1.2 2.6.9 4 1.7-.4 3.2-1.6 4.1-3.1.2-.4.4-.8.5-1.2 0-.3 0-.6-.1-.8 4.7-1.2 8.7-2.8 9.8-4.1 3.8-4.6 2-16-3.8-19.2"></path>
          <path id="Stroke-320_1_" class="st50" d="M41.1-111.4c-3.9-2.2-22.3-.8-26.2 3.7-4.2 4.8-1.9 18.1 3.3 20.6 2.3 1.1 6.9.9 11.5.1.8 1.1 1.2 2.6.9 4 1.7-.4 3.2-1.6 4.1-3.1.2-.4.4-.8.5-1.2 0-.3 0-.6-.1-.8 4.7-1.2 8.7-2.8 9.8-4.1 3.8-4.6 2-16-3.8-19.2z"></path>
          <g id="Group-325_1_" transform="translate(32.3 123.636)">
            <path id="Fill-322_1_" class="st1" d="M-11.6-225l11.9-2"></path>
            <path id="Stroke-324_1_" class="st50" d="M-11.6-225l11.9-2"></path>
          </g>
          <g id="Group-329_1_" transform="translate(45.6 122.686)">
            <path id="Fill-326_1_" class="st1" d="M-11.3-226.6l4.1-.7"></path>
            <path id="Stroke-328_1_" class="st50" d="M-11.3-226.6l4.1-.7"></path>
          </g>
          <g id="Group-333_1_" transform="translate(41.8 126.486)">
            <path id="Fill-330_1_" class="st1" d="M-4-226.9l-7.3 1.1"></path>
            <path id="Stroke-332_1_" class="st50" d="M-4-226.9l-7.3 1.1"></path>
          </g>
          <g id="Group-337_1_" transform="translate(32.3 128.386)">
            <path id="Fill-334_1_" class="st1" d="M-4.6-227l-7.4 1.1"></path>
            <path id="Stroke-336_1_" class="st50" d="M-4.6-227l-7.4 1.1"></path>
          </g>
          <g id="Group-341_1_" transform="translate(32.3 132.186)">
            <path id="Fill-338_1_" class="st1" d="M.1-226.9l-11.5 1.8"></path>
            <path id="Stroke-340_1_" class="st50" d="M.1-226.9l-11.5 1.8"></path>
          </g>
          <path id="Fill-342_1_" class="st55" d="M36.5-104.1c2.6-1.5 14.9-.5 17.5 2.5 2.8 3.3 1.3 12.3-2.2 14-1.6.7-4.6.6-7.7.1-.6.8-.8 1.8-.6 2.7-1.1-.3-2.1-1.1-2.7-2.1-.2-.3-.3-.5-.3-.8 0-.2 0-.4.1-.6-3.1-.8-5.8-1.9-6.5-2.8-2.7-3.1-1.4-10.9 2.4-13"></path>
          <path id="Fill-344_1_" class="st48" d="M38.4-105.1c2.6-1.5 14.9-.5 17.5 2.5 2.8 3.3 1.3 12.3-2.2 14-1.6.7-4.6.6-7.7.1-.6.8-.8 1.8-.6 2.7-1.1-.3-2.1-1.1-2.7-2.1-.2-.3-.3-.5-.3-.8 0-.2 0-.4.1-.6-3.1-.8-5.8-1.9-6.5-2.8-2.7-3.1-1.4-10.8 2.4-13"></path>
          <path id="Stroke-346_1_" class="st51" d="M38.4-105.1c2.6-1.5 14.9-.5 17.5 2.5 2.8 3.3 1.3 12.3-2.2 14-1.6.7-4.6.6-7.7.1-.6.8-.8 1.8-.6 2.7-1.1-.3-2.1-1.1-2.7-2.1-.2-.3-.3-.5-.3-.8 0-.2 0-.4.1-.6-3.1-.8-5.8-1.9-6.5-2.8-2.7-3.1-1.4-10.8 2.4-13z"></path>
          <path id="Fill-348_1_" class="st1" d="M44.1-97.7c0 .8-.6 1.4-1.4 1.4-.8 0-1.4-.6-1.4-1.4 0-.8.6-1.4 1.4-1.4.7 0 1.4.6 1.4 1.4"></path>
          <path id="Fill-350_1_" class="st1" d="M47.9-96.7c0 .8-.6 1.4-1.4 1.4-.8 0-1.4-.6-1.4-1.4s.6-1.4 1.4-1.4c.7-.1 1.4.6 1.4 1.4"></path>
          <path id="Fill-352_1_" class="st1" d="M52.6-95.8c0 .8-.6 1.4-1.4 1.4-.8 0-1.4-.6-1.4-1.4 0-.8.6-1.4 1.4-1.4.8 0 1.4.6 1.4 1.4"></path>
          <g id="Group-357_1_" transform="translate(62.7 116.986)">
            <path id="Fill-354_1_" class="st1" d="M-11.5-226.5l2.7-.7"></path>
            <path id="Stroke-356_1_" class="st50" d="M-11.5-226.5l2.7-.7"></path>
          </g>
          <g id="Group-361_1_" transform="translate(57.95 111.286)">
            <path id="Fill-358_1_" class="st1" d="M-11.1-224.5l-.7-2.7"></path>
            <path id="Stroke-360_1_" class="st50" d="M-11.1-224.5l-.7-2.7"></path>
          </g>
          <g id="Group-365_1_" transform="translate(61.75 112.236)">
            <path id="Fill-362_1_" class="st1" d="M-12-224.3l1.5-2.4"></path>
            <path id="Stroke-364_1_" class="st50" d="M-12-224.3l1.5-2.4"></path>
          </g>
          <path id="Fill-366_1_" class="st9" d="M51.7 12.5c0 17.6-14.2 31.8-31.8 31.8C2.2 44.3-12 30.1-12 12.5S2.2-19.3 19.8-19.3 51.7-5.1 51.7 12.5"></path>
          <g id="Stroke-368_1_">
            <path id="path-33_1_" class="st44" d="M51.7 12.5c0 17.6-14.2 31.8-31.8 31.8C2.2 44.3-12 30.1-12 12.5S2.2-19.3 19.8-19.3 51.7-5.1 51.7 12.5z"></path>
            <path class="st53" d="M51.1 12.5c0-17.3-14-31.3-31.3-31.3s-31.3 14-31.3 31.3 14 31.3 31.3 31.3 31.3-14 31.3-31.3z"></path>
          </g>
          <path id="Fill-370_1_" class="st1" d="M21.9 6.3h-.3c-1.7.1-3.3.8-4.3 2.2-1.1 1.4-1.6 3.4-1.2 5.3.6 3.2 3.6 5.8 6.6 5.8.7 0 1.4-.1 2-.4 3.4-1.2 4.4-4.9 3.6-7.7-.8-3.1-3.5-5.2-6.4-5.2M21.4 32c-1.3 0-2.5-.1-3.7-.4.5-1.9 0-4.2-1.9-5.3-.6-.3-1.2-.5-1.9-.5-1.6 0-3.1.9-4 1.8-2.2-1.9-3.9-4.2-5.1-6.9 2-1 3.6-3.1 3.1-5.5-.4-2.3-2.6-3.4-4.7-3.4.2-2.6 1-5.1 2.2-7.3.6.2 1.3.4 1.9.4 1.5 0 2.8-.5 3.6-1.5.6-.6.8-1.4.8-2.2-.1-.7-.4-1.5-1-2.1 1.7-1.1 3.6-1.8 5.7-2.2.8 1.3 2.4 2.2 4 2.2.9 0 1.7-.3 2.2-.9.2-.4.4-.8.5-1.2 1.7.4 3.4 1 4.9 1.9-.1.7.1 1.5.6 2.3.8 1.1 2 1.8 3 1.8.4 0 .7-.1 1-.3 1.1 1.3 2 2.7 2.8 4.2-.6.5-.9 1.4-.8 2.4.2 1.4 1.2 3 2.6 3.3.2 1.7.2 3.5 0 5.2h-.4c-1 0-1.9.7-2.3 1.8-.5 1.4-.3 3.2.6 4.3-1 1.7-2.2 3.2-3.7 4.4-.6-1-1.6-1.6-2.7-1.6-.4 0-.8.1-1.2.2-1.7.7-2.7 2.8-2.7 4.5-1.1.5-2.3.6-3.4.6"></path>
          <path id="Stroke-372_1_" class="st50" d="M21.9 6.3h-.3c-1.7.1-3.3.8-4.3 2.2-1.1 1.4-1.6 3.4-1.2 5.3.6 3.2 3.6 5.8 6.6 5.8.7 0 1.4-.1 2-.4 3.4-1.2 4.4-4.9 3.6-7.7-.8-3.1-3.5-5.2-6.4-5.2zM21.4 32c-1.3 0-2.5-.1-3.7-.4.5-1.9 0-4.2-1.9-5.3-.6-.3-1.2-.5-1.9-.5-1.6 0-3.1.9-4 1.8-2.2-1.9-3.9-4.2-5.1-6.9 2-1 3.6-3.1 3.1-5.5-.4-2.3-2.6-3.4-4.7-3.4.2-2.6 1-5.1 2.2-7.3.6.2 1.3.4 1.9.4 1.5 0 2.8-.5 3.6-1.5.6-.6.8-1.4.8-2.2-.1-.7-.4-1.5-1-2.1 1.7-1.1 3.6-1.8 5.7-2.2.8 1.3 2.4 2.2 4 2.2.9 0 1.7-.3 2.2-.9.2-.4.4-.8.5-1.2 1.7.4 3.4 1 4.9 1.9-.1.7.1 1.5.6 2.3.8 1.1 2 1.8 3 1.8.4 0 .7-.1 1-.3 1.1 1.3 2 2.7 2.8 4.2-.6.5-.9 1.4-.8 2.4.2 1.4 1.2 3 2.6 3.3.2 1.7.2 3.5 0 5.2h-.4c-1 0-1.9.7-2.3 1.8-.5 1.4-.3 3.2.6 4.3-1 1.7-2.2 3.2-3.7 4.4-.6-1-1.6-1.6-2.7-1.6-.4 0-.8.1-1.2.2-1.7.7-2.7 2.8-2.7 4.5-1.1.5-2.3.6-3.4.6z"></path>
          <path id="Fill-374_1_" class="st55" d="M27.3 24.7c-6.4 2.4-13.1-2.7-14.4-9-1.2-5.9 2.5-12 9-12.3 5.3-.2 9.8 3.6 11.2 8.5 1.5 5.1-.5 10.9-5.8 12.8"></path>
          <path id="Fill-376_1_" class="st11" d="M25.4 23.8c-6.4 2.4-13.1-2.7-14.4-9-1.2-5.9 2.5-12 9-12.3 5.3-.2 9.8 3.6 11.2 8.5 1.5 5-.5 10.9-5.8 12.8"></path>
          <path id="Stroke-378_1_" class="st50" d="M25.4 23.8c-6.4 2.4-13.1-2.7-14.4-9-1.2-5.9 2.5-12 9-12.3 5.3-.2 9.8 3.6 11.2 8.5 1.5 5-.5 10.9-5.8 12.8z"></path>
          <path id="Fill-380_1_" class="st1" d="M14.6 13.8c.3 2.3 2.8 3.7 5.3 3.1l.6-.1-.2-1.3-.6.1c-1.5.3-3-.6-3.2-2-.2-1.4 1-2.6 2.5-2.7l1.4-.1s.9 6.7.9 6.9c.1.7.8 1.1 1.5.9l-1.2-9.1h-2.8c-2.4.1-4.5 2-4.2 4.3m10.3-4.3h-.4l.1 1.1h.4c1 0 1.8.7 1.9 1.7.1 1-.5 1.9-1.4 2.1l-1 .2s-.8-6-.8-6.1c-.1-.6-.7-1.2-1.4-1.2l1.2 8.8s1.2-.3 2.2-.5c1.5-.3 2.4-1.8 2.2-3.3-.2-1.6-1.5-2.8-3-2.8"></path>
          <g id="Group-385_1_" transform="translate(44.65 226.236)">
            <path id="Fill-382_1_" class="st1" d="M-11.5-226.1l2.5-.7"></path>
            <path id="Stroke-384_1_" class="st50" d="M-11.5-226.1l2.5-.7"></path>
          </g>
          <g id="Group-389_1_" transform="translate(40.85 221.486)">
            <path id="Fill-386_1_" class="st1" d="M-10.7-224.6l-.7-2.5"></path>
            <path id="Stroke-388_1_" class="st50" d="M-10.7-224.6l-.7-2.5"></path>
          </g>
          <g id="Group-393_1_" transform="translate(44.65 222.436)">
            <path id="Fill-390_1_" class="st1" d="M-11.8-225.3l1.4-2.2"></path>
            <path id="Stroke-392_1_" class="st50" d="M-11.8-225.3l1.4-2.2"></path>
          </g>
          <path id="Stroke-394_1_" class="st57" d="M236-146.6l-7.6 31.4"></path>
          <path id="Stroke-396_1_" class="st57" d="M299.6-93.4L272-76.3"></path>
          <path id="Stroke-398_1_" class="st57" d="M315.8-18.4L286.3-27"></path>
          <path id="Stroke-400_1_" class="st57" d="M138.1-140.9l8.5 28.5"></path>
          <path id="Stroke-402_1_" class="st57" d="M74.5-82l25.7 14.3"></path>
          <path id="Stroke-404_1_" class="st57" d="M58.3 12.9l8.5-.8"></path>
          <path id="Peaceofmind_1_" d="M305.7-213.1v-2.1-2.1-1.9-1.7-.9c0-.3 0-.5.1-.7l.3-.6c.1-.2.3-.3.5-.4.2-.1.5-.2.8-.3.3-.1.7-.1 1.2-.1.3 0 .6 0 1 .1.4 0 .8.1 1.2.2.4.1.8.2 1.2.4s.8.4 1.1.7c.3.3.6.6.8 1 .2.4.3.8.3 1.3 0 .4-.1.8-.3 1.2s-.4.6-.7.9c-.3.2-.6.4-1 .6-.4.2-.7.3-1 .3-.3.1-.6.1-.9.2-.3 0-.6.1-.9.1-.3 0-.5 0-.6-.1-.2-.1-.2-.1-.2-.3 0-.1 0-.2.1-.3.1-.1.1-.1.3-.2.3 0 .6 0 1-.1s.6-.2.9-.4c.3-.2.5-.4.7-.7.2-.3.3-.7.3-1.1 0-.3 0-.5-.1-.8-.1-.2-.2-.4-.4-.5s-.3-.3-.5-.4-.4-.2-.6-.2c-.2-.1-.4-.1-.6-.1h-.6c-.2 0-.3 0-.4.1-.1.1-.2.1-.2.2-.1.1-.1.2-.1.3v1.8c0 .5 0 1 .1 1.5 0 .5.1 1 .1 1.5v1.6c0 .7 0 1.2-.1 1.6s-.1.7-.2.9-.3.4-.4.4c-.2.1-.4.1-.6.1-.1 0-.2 0-.4-.1-.1 0-.2-.1-.4-.2s-.2-.2-.3-.3-.5-.2-.5-.4zm12.7-1.1c.3 0 .6-.1.9-.2s.5-.3.8-.5c.2-.2.5-.4.7-.7s.4-.5.5-.8c.2-.3.3-.5.4-.7l.3-.6c0-.1.1-.1.1-.2.1 0 .2-.1.3-.1.1 0 .1 0 .2.1 0 0 .1.1.1.2v.1c-.1.3-.2.6-.4 1s-.3.7-.6 1.1c-.2.4-.5.8-.7 1.1-.3.4-.6.7-.9 1s-.7.5-1.1.7c-.4.2-.8.3-1.2.3-.6 0-1.2-.1-1.6-.3-.4-.2-.8-.4-1.1-.7-.3-.3-.5-.6-.6-1s-.2-.8-.2-1.2c0-.3 0-.6.1-1l.3-.9c.1-.3.3-.6.5-.8l.7-.7c.3-.2.6-.3.9-.4.3-.1.7-.2 1.1-.2.2 0 .5 0 .7.1.2.1.4.2.5.4.1.1.3.3.4.5.1.2.1.4.1.6 0 .2-.1.4-.2.7s-.3.5-.5.7-.5.4-.9.6-.8.3-1.3.3c0 .2.1.4.2.6.1.2.2.3.3.5s.3.2.5.3c.2.1.4.1.7.1zm.1-3.6c0-.1 0-.3-.1-.3-.1-.1-.2-.1-.4-.1s-.4.1-.5.2l-.4.4c-.1.2-.2.4-.2.6-.1.2-.1.5-.1.7.2 0 .4-.1.6-.2.2-.1.4-.2.5-.3.2-.1.3-.3.4-.5.1-.1.2-.3.2-.5zm6.1-1.8c1.3 0 1.9.5 2 1.5.2 0 .4 0 .6.1.2.1.4.1.5.2.2.1.3.2.4.4.1.2.2.3.2.5V-214.7c0 .1.1.2.1.2.1.1.1.1.2.1s.3-.1.4-.2c.1-.1.3-.3.4-.5s.3-.4.5-.6c.1-.2.3-.5.4-.7.1-.2.2-.5.4-.7s.2-.4.2-.6c0-.1.1-.1.1-.2.1 0 .2-.1.3-.1.1 0 .1 0 .2.1 0 0 .1.1.1.2v.1c-.1.3-.2.6-.4 1-.1.4-.3.7-.5 1.1-.2.4-.4.8-.6 1.1-.2.4-.5.7-.7 1-.3.3-.5.5-.9.7-.3.2-.6.3-.9.3-.3 0-.5 0-.7-.1-.2-.1-.4-.2-.5-.3-.1-.2-.2-.3-.3-.6s-.1-.5-.2-.8c-.2.6-.6 1.1-1 1.4-.4.3-.9.5-1.5.5-.3 0-.5 0-.8-.1-.3-.1-.5-.2-.7-.4-.2-.2-.4-.5-.5-.8s-.2-.7-.2-1.1c0-.6.1-1.2.3-1.8.2-.6.4-1.1.7-1.5s.7-.8 1.1-1c.4-.5.9-.6 1.3-.6zm1.2 1.8c-.4 0-.7.1-1 .3-.3.2-.5.4-.7.7s-.3.6-.4.9c-.1.3-.1.7-.1 1v.3c0 .1.1.2.1.3s.1.2.2.2.1.1.2.1.3-.1.5-.2.3-.3.5-.4c.2-.2.3-.4.4-.7l.3-.9v-.1c0-.2.1-.4.2-.6l.3-.6s-.1 0-.1-.1-.1-.1-.1-.1l-.1-.1h-.2zm8.5-1.8c.3 0 .5 0 .8.1s.4.2.6.3c.2.1.3.3.4.4.1.2.1.3.1.4 0 .1 0 .3-.1.4-.1.1-.1.2-.2.3-.1.1-.2.2-.3.2s-.3.1-.4.1c-.2 0-.4-.1-.5-.2-.1-.1-.2-.2-.2-.4v-.2-.2-.1s-.1-.1-.2-.1c-.2 0-.4.1-.5.2-.2.1-.3.3-.4.5-.1.2-.2.4-.2.7s-.1.5-.1.8c0 .2 0 .5.1.7l.3.6c.1.2.3.3.5.4.2.1.5.2.7.2.3 0 .6-.1.9-.2.3-.1.5-.3.8-.5.2-.2.5-.4.7-.7.2-.2.4-.5.5-.8s.3-.5.4-.7l.3-.6c0-.1.1-.1.1-.2.1 0 .2-.1.3-.1.1 0 .1 0 .2.1 0 0 .1.1.1.2v.1c-.1.3-.2.6-.4 1s-.3.7-.5 1.1c-.2.4-.4.8-.7 1.1-.3.4-.6.7-.9 1-.3.3-.7.5-1.1.7-.4.2-.8.3-1.2.3-.6 0-1.2-.1-1.6-.3-.4-.2-.8-.4-1.1-.7-.3-.3-.5-.6-.6-1s-.2-.8-.2-1.2c0-.3 0-.6.1-1l.3-.9c.1-.3.3-.6.5-.8l.7-.7c.3-.2.6-.3.9-.5s.7.2 1.1.2zm7.4 5.4c.3 0 .6-.1.9-.2s.5-.3.8-.5c.2-.2.5-.4.7-.7s.4-.5.5-.8c.2-.3.3-.5.4-.7l.3-.6c0-.1.1-.1.1-.2.1 0 .2-.1.3-.1.1 0 .1 0 .2.1 0 0 .1.1.1.2v.1c-.1.3-.2.6-.4 1s-.3.7-.6 1.1c-.2.4-.5.8-.7 1.1-.3.4-.6.7-.9 1s-.7.5-1.1.7c-.4.2-.8.3-1.2.3-.6 0-1.2-.1-1.6-.3-.4-.2-.8-.4-1.1-.7-.3-.3-.5-.6-.6-1s-.2-.8-.2-1.2c0-.3 0-.6.1-1l.3-.9c.1-.3.3-.6.5-.8l.7-.7c.3-.2.6-.3.9-.4.3-.1.7-.2 1.1-.2.2 0 .5 0 .7.1.2.1.4.2.5.4.1.1.3.3.4.5.1.2.1.4.1.6 0 .2-.1.4-.2.7s-.3.5-.5.7-.5.4-.9.6-.8.3-1.3.3c0 .2.1.4.2.6.1.2.2.3.3.5s.3.2.5.3c.2.1.4.1.7.1zm.1-3.6c0-.1 0-.3-.1-.3-.1-.1-.2-.1-.4-.1s-.4.1-.5.2l-.4.4c-.1.1-.2.4-.2.6-.1.2-.1.5-.1.7.2 0 .4-.1.6-.2s.4-.2.5-.3c.2-.1.3-.3.4-.5.2-.1.2-.3.2-.5zm14 1.2v.6c.3 0 .6-.2.8-.5.3-.3.5-.7.7-1.2 0-.1.1-.1.1-.2.1 0 .2-.1.3-.1.1 0 .1 0 .2.1 0 0 .1.1.1.2v.1c-.1.4-.3.7-.4 1.1-.2.3-.3.6-.5.8-.2.2-.4.4-.7.5-.3.1-.5.2-.9.2-.1.2-.1.3-.2.5l-.3.6c-.1.2-.3.4-.4.5-.2.2-.4.3-.6.5-.2.1-.4.2-.7.3-.3.1-.5.1-.9.1-.6 0-1.1-.1-1.5-.3-.4-.2-.7-.4-1-.8s-.4-.7-.5-1.1-.1-.8-.1-1.2c0-.5.1-1 .2-1.4.1-.5.4-.9.7-1.2.3-.4.7-.6 1.2-.9.5-.2 1.1-.3 1.8-.3.2 0 .4 0 .6.1.2.1.3.2.5.3.1.1.3.2.3.4.1.1.2.3.2.4.2 0 .3.1.4.2s.2.2.3.4c.1.2.1.3.2.5.1.4.1.6.1.8zm-2.9 2.4c.4 0 .6-.1.8-.2.2-.2.4-.4.5-.6-.2-.1-.3-.1-.4-.2-.1-.1-.3-.2-.4-.3-.1-.1-.2-.3-.2-.5-.1-.2-.1-.4-.1-.6 0-.4.1-.7.2-1 .2-.3.4-.5.6-.6-.1-.1-.2-.1-.3-.2-.1-.1-.3-.1-.5-.1s-.5.1-.7.2c-.2.1-.4.3-.5.6-.1.2-.3.5-.4.8-.1.3-.1.6-.1.9 0 .2 0 .5.1.7 0 .2.1.4.2.6.1.2.2.3.4.4.4.1.6.1.8.1zm7.4-9.8c.3 0 .5.1.7.2s.3.3.5.6c.1.2.2.5.2.9 0 .3.1.7.1 1 0 .2 0 .4-.1.7 0 .3-.1.5-.2.8-.1.3-.2.5-.3.8-.1.3-.3.5-.4.8s-.3.5-.5.7c-.2.2-.4.4-.6.5 0 .9-.1 1.9-.2 2.8.3-.1.6-.3.9-.6.3-.2.7-.5 1-.8.3-.3.6-.6.9-1 .3-.4.5-.7.6-1.1 0-.1.1-.1.1-.2.1 0 .2-.1.3-.1.1 0 .1 0 .2.1 0 0 .1.1.1.2v.1c-.2.6-.4 1.1-.7 1.6s-.6.9-1 1.3-.8.8-1.2 1.1c-.4.3-.9.7-1.4 1-.1.4-.2.7-.3 1.1-.1.4-.3.7-.5 1-.2.3-.4.5-.7.7-.2.2-.5.3-.9.3-.1 0-.3 0-.4-.1-.1-.1-.2-.1-.3-.2-.1-.1-.2-.2-.2-.4-.1-.2-.1-.4-.1-.6 0-.2 0-.5.1-.7.1-.2.1-.4.2-.5s.2-.3.3-.4l.3-.3c.1-.1.2-.1.3-.2.1 0 .1-.1.1-.1v-4.7-.9c0-.3 0-.7.1-1 0-.4.1-.7.2-1.1.1-.4.2-.7.3-1 .1-.3.2-.6.4-.9.1-.3.3-.5.5-.8.2-.2.4-.4.7-.5.3 0 .6-.1.9-.1zm.1 1.7c-.1 0-.1.1-.2.2s-.1.3-.2.6c-.1.2-.1.5-.1.8 0 .3-.1.6-.1.9s-.1.6-.1.9v.8c.2-.2.4-.4.5-.7l.3-.9c.1-.3.1-.6.2-.9s.1-.6.1-.8v-.3-.3c0-.1-.1-.2-.1-.3h-.3zm15.9 5.9v-.4c0-.1 0-.3-.1-.4 0-.1-.1-.2-.2-.3-.1-.1-.2-.1-.3-.1-.1 0-.3.1-.4.2-.1.1-.2.3-.3.6s-.2.5-.3.8l-.3.9c-.1.3-.2.6-.2.9s-.1.5-.2.7c0 .2-.1.3-.1.5-.1.2-.2.3-.3.4s-.3.2-.5.3c-.2.1-.5.1-.8.1h-.3c-.1 0-.2-.1-.2-.1-.1 0-.1-.1-.2-.2 0-.1-.1-.2-.1-.3v-.3-.4-.5-2.3c0-.3 0-.5-.1-.6-.1-.1-.2-.2-.4-.2-.1 0-.3.1-.4.2-.1.1-.2.3-.3.5-.1.2-.2.4-.3.7s-.2.5-.3.8c-.1.3-.2.5-.2.8-.1.3-.1.5-.2.7 0 .2-.1.3-.1.5-.1.1-.2.3-.3.4s-.3.2-.5.3c-.2.1-.4.1-.7.1h-.3c-.1 0-.2-.1-.2-.1-.1 0-.1-.1-.2-.2 0-.1-.1-.2-.1-.3v-.3-.7-1.2-1.9c0-.1 0-.2.1-.4s.1-.3.2-.5.2-.3.4-.4c.2-.1.4-.2.6-.2.2 0 .3 0 .4.1.1.1.2.1.3.2s.1.2.2.3.1.2.1.4v1.2c.1-.4.2-.7.3-1s.3-.6.5-.9c.2-.3.5-.5.8-.6.3-.2.7-.2 1.1-.2.5 0 .9.2 1.3.7.3.5.5 1.2.6 2.2.1-.3.1-.5.2-.8.1-.3.1-.5.2-.8.1-.2.2-.5.3-.7.1-.2.3-.4.5-.6.2-.2.4-.3.7-.4.3-.1.6-.1.9-.1.3 0 .6.1.9.2.2.1.5.3.6.5.2.3.3.6.4 1s.1.9.1 1.5v1.6c0 .1.1.2.1.3.1.1.2.1.3.1.1 0 .3-.1.4-.2.1-.1.3-.3.4-.5s.3-.4.5-.6c.1-.2.3-.5.4-.7.1-.2.2-.5.4-.7s.2-.4.2-.6c0-.1.1-.1.1-.2.1 0 .2-.1.3-.1.1 0 .1 0 .2.1 0 0 .1.1.1.2v.1c-.1.3-.2.6-.4 1-.1.4-.3.7-.5 1.1-.2.4-.4.8-.6 1.1-.2.4-.5.7-.7 1-.3.3-.5.5-.9.7-.3.2-.6.3-.9.3-.4 0-.7-.1-.9-.2-.2-.1-.4-.3-.6-.6-.1-.3-.2-.6-.3-1.1 0-.4-.1-1-.1-1.6v-.8zm5.8-3.1h.3c.1 0 .2 0 .4.1.1 0 .3.1.4.1.1.1.3.1.4.2l.3.3c.1.1.1.2.1.4V-214.6c0 .1.1.2.1.2.1.1.1.1.2.1s.3-.1.4-.2.3-.3.4-.5c.1-.2.3-.4.4-.6.1-.2.3-.5.4-.7s.2-.5.4-.7.2-.4.2-.6c0-.1.1-.1.1-.2.1 0 .2-.1.3-.1.1 0 .1 0 .2.1 0 0 .1.1.1.2v.1c-.1.3-.2.6-.4 1-.1.4-.3.7-.5 1.1-.2.4-.4.8-.6 1.1-.2.4-.5.7-.7 1-.3.3-.5.5-.9.7s-.6.3-.9.3c-.4 0-.7-.1-.9-.2-.2-.1-.4-.3-.6-.6-.1-.3-.2-.6-.3-1.1 0-.4-.1-1-.1-1.6v-1.6-.4-.4c0-.1 0-.3.1-.4 0-.1.1-.3.1-.4 0-.1.1-.2.2-.3s.3-.2.4-.2zm-.2-2.1c0-.2 0-.4.1-.6.1-.2.2-.3.3-.5.1-.1.3-.2.5-.3.2-.1.4-.1.6-.1.1 0 .3 0 .4.1s.2.1.3.2c.1.1.2.2.2.4s.1.3.1.5 0 .5-.1.7-.2.4-.3.5c-.1.1-.3.3-.5.3-.2.1-.4.1-.6.1-.2 0-.4 0-.5-.1l-.3-.3c-.1-.1-.1-.3-.2-.4.1-.1 0-.3 0-.5zm9.5 5.2v-.4c0-.1 0-.3-.1-.4 0-.1-.1-.2-.2-.3-.1-.1-.2-.1-.3-.1-.1 0-.2.1-.4.2-.1.1-.2.2-.3.4l-.3.6c-.1.2-.2.5-.3.7-.1.3-.2.5-.3.8-.1.3-.2.5-.2.7-.1.2-.1.4-.2.6-.1.2-.1.3-.2.5-.1.1-.1.2-.2.3-.1.1-.2.2-.3.2-.1.1-.3.1-.4.2-.2 0-.4.1-.6.1h-.3c-.1 0-.2-.1-.2-.1-.1 0-.1-.1-.2-.2 0-.1-.1-.2-.1-.3v-.3-.7-1.2-1.9c0-.1 0-.3.1-.5s.1-.3.2-.5.2-.3.4-.4c.2-.1.3-.2.6-.2.2 0 .3 0 .4.1.1.1.2.1.3.2.1.1.1.2.2.3s.1.2.1.4v1.4c.1-.3.1-.5.2-.8.1-.3.2-.5.3-.8.1-.2.3-.5.4-.7.2-.2.3-.4.5-.6s.4-.3.7-.4c.3-.1.6-.1.9-.1.7 0 1.2.3 1.5.9.3.6.5 1.4.5 2.5v1.5c0 .1.1.2.1.3.1.1.2.1.3.1.1 0 .3-.1.4-.2.1-.1.3-.3.4-.5s.3-.4.5-.6c.1-.2.3-.5.4-.7s.2-.5.4-.7.2-.4.2-.6c0-.1.1-.1.1-.2.1 0 .2-.1.3-.1.1 0 .1 0 .2.1 0 0 .1.1.1.2v.1c-.1.3-.2.6-.3 1-.1.4-.3.7-.5 1.1-.2.4-.4.8-.6 1.1-.2.4-.5.7-.7 1-.3.3-.5.5-.9.7s-.6.3-.9.3c-.4 0-.7-.1-.9-.2-.2-.1-.4-.3-.6-.6-.1-.3-.2-.6-.3-1.1 0-.4-.1-1-.1-1.6v-.6zm7.9-3.2c.3 0 .6.1.8.2.2.2.4.3.5.5 0-.4.1-.7.1-1.1 0-.4.1-.8.2-1.1s.2-.7.3-1.1l.3-.9c.1-.3.3-.5.4-.6s.3-.2.5-.2c.1 0 .2 0 .4.1.1 0 .2.1.4.2s.2.2.3.3.1.3.1.5v.6c0 .2-.1.4-.1.7 0 .3-.1.6-.1.9 0 .3-.1.8-.1 1.2 0 .5-.1 1-.1 1.7v2.9c0 .1.1.2.1.2.1.1.1.1.2.1s.3-.1.4-.2c.1-.1.3-.3.4-.5.1-.2.3-.4.4-.6.1-.2.3-.5.4-.7.1-.2.2-.5.4-.7s.2-.4.2-.6c0-.1.1-.1.1-.2.1 0 .2-.1.3-.1.1 0 .1 0 .2.1 0 0 .1.1.1.2v.1c-.1.3-.2.6-.4 1-.1.4-.3.7-.5 1.1-.2.4-.4.8-.6 1.1-.2.4-.5.7-.7 1-.3.3-.5.5-.9.7-.3.2-.6.3-.9.3-.3 0-.6 0-.8-.1-.2-.1-.4-.2-.5-.4l-.3-.6c-.1-.2-.1-.5-.2-.9-.2.7-.6 1.2-1 1.5-.4.3-.9.5-1.5.5-.3 0-.5 0-.8-.1-.3-.1-.5-.2-.7-.4-.2-.2-.4-.5-.5-.8s-.2-.7-.2-1.1c0-.6.1-1.2.3-1.8.2-.6.4-1.1.7-1.5s.7-.8 1.1-1c.4-.3.8-.4 1.3-.4zm1.3 1.8h-.1c-.4 0-.7.1-1 .3-.3.2-.5.4-.7.7s-.3.6-.4.9-.1.7-.1 1v.3c0 .1.1.2.1.3 0 .1.1.2.2.2s.1.1.2.1.3-.1.5-.2.4-.3.6-.5c.2-.2.3-.5.4-.8.1-.3.2-.7.2-1v-.6c.1-.2.1-.4.1-.7z" fill="#5c7793"></path>
          <path id="Fill-152_1_" class="st48" d="M370.2-15.5c0 .4-.3.8-.8.8-.4 0-.8-.3-.8-.8s.3-.8.8-.8.8.4.8.8"></path>
          <path id="Fill-154_1_" class="st48" d="M372.7-15.8c0 .4-.3.8-.8.8-.4 0-.8-.3-.8-.8s.3-.8.8-.8c.4 0 .8.3.8.8"></path>
          <g id="Group-141_1_" transform="translate(385.305 208.75)">
            <path id="Stroke-140_1_" class="st47" d="M-11.1-226.8h1.2c2.2-.3 4.2 1.5 4.2 3.7v23c0 2.3-2 4-4.2 3.7h-1.6"></path>
          </g>
        </g>
        <g id="Group-15_1_" transform="translate(361 118)">
          <path id="Fill-19-Copy_1_" class="st22" d="M46.8-37.5C31.6-38.6 25.6-43 20.3-48.9 15-54.7 1.6-77.5 1.6-77.5l90-2.1s2.9 25.7-2.6 32.7c0 0-5.4 9-17.7 10.2-6.3.7-24.5-.8-24.5-.8"></path>
          <path id="Fill-20-Copy_1_" class="st59" d="M46.9-181.9l-.3 14s19.6.1 19.6 0-.3-14.4-.3-14.4l-19 .4z"></path>
          <path id="Fill-21-Copy_1_" class="st31" d="M69.5-192.7s-2.7 18.1-12.9 18.1-13.4-18.1-13.4-18.1-3.5-4.4-3.5-7.6c0-3.1 0-5.9-1.6-8-1.6-2.1-4.9-6.7-1.3-11.2 3.7-4.4 8.5-2.5 8.5-2.5s-.4-3.7 3.2-4.7S57-224 59.4-224c2.5 0 7.4-3.5 11.1-3.5 3.7 0 6.4 2.5 7.3 4.2.6.9 1.4 3.8 1.8 6.8.5 3.4-1.6 6.7-5 7.7l-2.6.8c.2-.1.7 11.7-2.5 15.3"></path>
          <path id="Fill-22-Copy_1_" class="st59" d="M68.9-199.1s1.5-9.3-3.2-10.2c-4.7-.9-3.8 2.5-9 2.5s-5.6-2.7-7.2-2.7c-1.6 0-4.9 2.3-5.3 8.6-.4 6.3 3.5 14.6 5.3 15.9 1.8 1.3 6.3-.9 7.2-.9.9 0 2.7 1.3 4 1.3 1.3 0 4-.4 4.6-2.8.6-2.5 3.6-11.7 3.6-11.7"></path>
          <path id="Fill-23-Copy_1_" class="st59" d="M39.5-196.4s1.7 4.4 3.3 3.6c1.6-.8 0-5.7 0-5.7s-.4-4.5-3.3-3.3c-2.4 1.1 0 5.4 0 5.4"></path>
          <path id="Fill-24-Copy_1_" class="st59" d="M72.9-196.4s-1.7 4.4-3.3 3.6c-1.6-.8 0-5.7 0-5.7s.4-4.5 3.3-3.3c2.5 1.1 0 5.4 0 5.4"></path>
          <g id="Group-28-Copy_1_" transform="translate(1.42 46.24)">
            <path id="Fill-26_1_" d="M54.8-214.6c-10.6 0-9.3-11.8-9.3-11.8l-28 11.2s-5.7 1.8-10.5 8.5c-4.8 6.6-10.8 14.3-16.9 33.8l23 12.1 10.8-16.8c.3-.5 1.1-.3 1 .3l-1.6 57.5s.4 6.1 5.1 7.5c4.8 1.5 19.7 2.4 26.6 2.4 6.9 0 22.1-.9 25.3-2 3.1-1.1 7.9-3.9 7.9-10.1 0-5.4.2-44.3.3-55 0-.6.9-.8 1.1-.2l7 16.4 23.3-11.3s-7.4-23.8-16.5-33.9c0 0-3.9-6.2-13-9.9-9.2-3.7-25.9-10.5-25.9-10.5s1.7 11.8-9.7 11.8" fill-rule="evenodd" clip-rule="evenodd" fill="#77a1f2"></path>
            <g id="Group-10_1_" transform="translate(.656 .55)">
              <path class="st61" d="M-12-221.6l2.1-5.9 25 12-3.4 5.5z" transform="translate(0 47.52)"></path>
              <path class="st61" d="M-8.3-226.7s-1.3 12.8 9.9 12.8c12.1 0 10.3-12.8 10.3-12.8l3.3 1.4s.7 15.4-13.4 15.4c-14 0-13.3-15.4-13.3-15.4l3.2-1.4z" transform="translate(52.47)"></path>
              <path class="st61" d="M15.1-221.7l-2.1-5.8-25 11.9 3.3 5.2z" transform="translate(104.94 48.51)" id="Group-9_1_"></path>
            </g>
          </g>
          <path id="Fill-29-Copy_1_" class="st59" d="M119.7-125s9.1 30.8 5.7 36.9c-4 7.4-10.8 8-13.5 9.2-2.7 1.2-18.1 6.3-18.1 6.3L96-93.4l10.8-4.9-8.8-16.3 21.7-10.4z"></path>
          <path id="Fill-31-Copy_1_" class="st59" d="M-5.5-125s-9.1 30.8-5.7 36.9c4 7.4 10.8 8 13.5 9.2 2.7 1.2 18.1 6.3 18.1 6.3l-2.2-20.8-10.9-4.9 8.8-16.3L-5.5-125z"></path>
          <path id="Fill-33-Copy_1_" d="M98.4-113.1l.3-4c.2-3.1-2.2-5.7-5.3-5.7l-74.9.2c-3.1 0-5.5 2.6-5.3 5.7l.3 3.7 84.9.1z" fill-rule="evenodd" clip-rule="evenodd" fill="#a5b1c2"></path>
          <path id="Fill-35-Copy_1_" d="M13.4-113.2l3.1 38.6c.2 2.8 2.5 4.9 5.3 4.9H90c2.8 0 5.1-2.1 5.3-4.9l3-38.7c.2-3.1-2.2-5.7-5.3-5.7l-74.3.2c-3.1-.1-5.6 2.5-5.3 5.6" fill-rule="evenodd" clip-rule="evenodd" fill="#d1d8e0"></path>
          <path id="Fill-37-Copy_1_" class="st59" d="M75.6 53.4L59 53.1l.2-9.1h15.9z"></path>
          <path id="Fill-39-Copy_1_" class="st59" d="M113.5-57.7l8.8 2.2-2.8 13.4-11.1-3.5z"></path>
          <path id="Fill-41-Copy_1_" class="st6" d="M114.4-59.9L61.3-80.2 16-95.1C9.2-97.3 1.9-93.2.3-86.2-1-80.5 2-74.6 7.3-72.3c13.2 5.7 37.9 15.9 56.5 20.4 26.5 6.5 45.1 9.8 45.1 9.8l5.5-17.8z"></path>
          <path id="Fill-43-Copy_1_" class="st6" d="M55.9 44.4s-2.3-31.8-2.8-49.7c-.3-11.8-.2-34.9-.1-49.2 0-6.9 5.6-12.4 12.5-12.4 6.6 0 12 5.1 12.5 11.7.9 13.7 2.1 35.9 2 47.8-.1 17.9-2.5 51.8-2.5 51.8H55.9z"></path>
          <path id="Fill-45-Copy_1_" class="st22" d="M119.2-56.2s8.7-2.8 11.1-1c1.1.8 2.4 1.3 3.6 1.5 1.4.3 2.5 1.5 2.5 3 .1 6.8-.1 24.1-2.7 28.7 0 0-1.3.7-2.9-1.2-1.6-1.9-2.5-5.1-5.7-7.6s-5.4-5.1-9.2-6.4c-3.8-1.3-5.4-4.3-3.7-7.8 1.7-3.5 8.7-6.9 9.4-7.6.7-.9-2.4-1.6-2.4-1.6"></path>
          <path id="Fill-47-Copy_1_" class="st22" d="M66.7 45.8s-6.1-.1-8.2 9.2c-1.5 6.4-1.9 12-2 14.8-.1 1.3.7 2.4 1.9 2.9 1.9.7 5.2 1.7 9.6 1.7 4.5 0 7.8-1 9.7-1.9 1.1-.5 1.8-1.6 1.8-2.8-.1-2.8-.7-8.3-3.3-11.8 0 0-.1-5-1.8-6.9-1.5-2-4.2-5.1-7.7-5.2"></path>
          <path id="Fill-49-Copy_1_" class="st22" d="M53-54.9l25.3 6.4.5 10L53-48.8z"></path>
          <ellipse id="Oval-Copy_1_" cx="55.3" cy="-95.6" rx="5.8" ry="5.1" opacity=".2" fill-rule="evenodd" clip-rule="evenodd" fill="#a5b1c2"></ellipse>
          <path id="SunsetProperties_1_" d="M47.9-145.4c0 .3-.1.6-.2.8-.1.2-.4.4-.6.6-.3.1-.6.2-1 .2s-.8-.1-1.1-.2c-.3-.1-.6-.3-.8-.6s-.3-.6-.3-.9H45c0 .2.1.4.3.6.2.2.4.2.6.2.2 0 .4-.1.5-.2.1-.1.2-.3.2-.5s-.1-.3-.2-.4c-.1-.1-.2-.2-.4-.3-.1 0-.2-.1-.3-.1l-.3-.1c-.4-.1-.6-.2-.9-.3-.2-.1-.4-.3-.6-.5-.2-.2-.2-.5-.2-.9 0-.5.2-.9.5-1.1s.8-.4 1.4-.4c.6 0 1.1.1 1.4.4.4.3.6.7.6 1.2h-1.2c0-.2-.1-.4-.3-.5-.1-.1-.3-.2-.6-.2-.2 0-.4.1-.5.2-.1.1-.2.3-.2.5s0 .3.1.4.2.2.4.3c.2.1.4.1.6.2.4.1.7.2.9.4.2.1.4.3.6.5.4 0 .5.3.5.7zm5.1-2.9v4.4h-1.1v-.9c-.1.3-.3.5-.6.7-.3.2-.6.3-.9.3-.5 0-.9-.2-1.2-.5s-.5-.8-.5-1.4v-2.6h1.1v2.4c0 .4.1.6.3.8.2.2.4.3.7.3.3 0 .6-.1.8-.3.2-.2.3-.5.3-.9v-2.4H53zm3.6 0c.5 0 .9.2 1.2.5.3.3.5.8.5 1.4v2.6h-1.1v-2.4c0-.4-.1-.6-.3-.8-.2-.2-.4-.3-.7-.3-.3 0-.6.1-.8.3-.2.2-.3.5-.3.9v2.4H54v-4.4h1.1v.9c.1-.3.3-.5.6-.7.3-.4.6-.4.9-.4zm4.2 0c.5 0 1 .1 1.3.4.3.3.5.6.6 1.1h-1.1c0-.2-.1-.4-.3-.5-.1-.1-.3-.2-.6-.2-.2 0-.3 0-.4.1s-.2.2-.2.4c0 .1 0 .2.1.3.1.1.2.1.3.2l.2.1c.1 0 .1 0 .2.1h.1c.3.1.6.2.8.2.2.1.4.2.5.4.2.2.2.4.2.7 0 .4-.1.7-.4.9-.3.2-.7.4-1.2.4-.6 0-1-.1-1.4-.4-.3-.3-.6-.6-.6-1.1H60c0 .2.1.4.3.5.2.1.4.2.6.2.2 0 .3 0 .4-.1s.2-.2.2-.4c0-.1 0-.2-.1-.3-.1-.1-.2-.1-.3-.2l-.2-.1c-.1 0-.1 0-.2-.1h-.1c-.3-.1-.6-.2-.8-.2-.2-.1-.4-.2-.5-.4s-.2-.4-.2-.7c0-.4.1-.7.4-.9.4-.3.8-.4 1.3-.4zm7 2.1v.4h-3.2c0 .4.1.7.3.9.2.2.4.3.7.3.3 0 .5-.1.7-.2s.3-.3.3-.5h1.2c-.1.3-.2.6-.4.8s-.4.4-.7.6c-.3.1-.6.2-1 .2s-.8-.1-1.2-.3c-.3-.2-.6-.4-.8-.8-.2-.3-.3-.7-.3-1.2s.1-.9.3-1.2c.2-.3.4-.6.8-.8.3-.2.7-.3 1.2-.3.4 0 .8.1 1.1.3.3.2.6.4.8.7.1.3.2.7.2 1.1zm-1.1-.1c0-.4-.1-.6-.3-.8-.2-.2-.5-.3-.8-.3-.3 0-.6.1-.8.3-.2.2-.3.5-.3.8h2.2zm4.3 1.5v1h-.6c-.5 0-.9-.1-1.1-.4-.3-.2-.4-.6-.4-1.2v-1.9h-.6v-1h.6v-1.1H70v1.1h1v1h-1v1.9c0 .2 0 .4.1.4.1.1.2.1.4.1h.5zm-32.8 8.9v2.1h-1.1v-5.6h2.1c.7 0 1.2.2 1.5.5.3.3.5.8.5 1.3s-.2 1-.5 1.3c-.3.3-.8.5-1.5.5h-1zm.8-1c.7 0 1-.3 1-.9 0-.3-.1-.5-.2-.6s-.4-.2-.8-.2h-.8v1.7h.8zm4-.5c.2-.3.4-.5.7-.7.3-.2.6-.2.9-.2v1.2h-.3c-.8 0-1.2.4-1.2 1.2v2.1H42v-4.4h1v.8zm4.3-.9c.4 0 .8.1 1.2.3s.6.4.8.8c.2.3.3.7.3 1.2s-.1.9-.3 1.2-.5.6-.8.8c-.3.2-.7.3-1.2.3-.4 0-.8-.1-1.2-.3-.3-.2-.6-.4-.8-.8s-.3-.7-.3-1.2.1-.9.3-1.2c.2-.3.5-.6.8-.8s.7-.3 1.2-.3zm0 .9c-.3 0-.6.1-.8.3-.2.2-.3.5-.3 1 0 .4.1.7.3 1 .2.2.5.3.8.3.3 0 .6-.1.8-.3.2-.2.3-.5.3-1 0-.4-.1-.7-.3-1-.2-.2-.5-.3-.8-.3zm5.7-.9c.4 0 .7.1 1 .3s.5.4.7.8c.2.3.3.7.3 1.2s-.1.9-.3 1.2c-.2.3-.4.6-.7.8s-.6.3-1 .3-.7-.1-1-.3c-.3-.2-.5-.4-.6-.7v3h-1.1v-6.5h1.1v.9c.1-.3.3-.5.6-.7.3-.3.6-.3 1-.3zm-.4.9c-.3 0-.6.1-.8.3-.2.2-.3.5-.3.9s.1.7.3.9c.2.2.5.3.8.3.4 0 .6-.1.8-.3.2-.2.3-.5.3-.9s-.1-.7-.3-.9c-.1-.1-.4-.3-.8-.3zm7.3 1.2v.4h-3.2c0 .4.1.7.3.9.2.2.4.3.7.3.3 0 .5-.1.7-.2.2-.1.3-.3.3-.5h1.2c-.1.3-.2.6-.4.8s-.4.4-.7.6c-.3.1-.6.2-1 .2s-.8-.1-1.2-.3c-.3-.2-.6-.4-.8-.8s-.3-.7-.3-1.2.1-.9.3-1.2c.2-.3.4-.6.8-.8.3-.2.7-.3 1.2-.3.4 0 .8.1 1.1.3s.6.4.8.7c.1.3.2.7.2 1.1zm-1.1-.1c0-.4-.1-.6-.3-.8-.2-.2-.5-.3-.8-.3-.3 0-.6.1-.8.3-.2.2-.3.5-.3.8h2.2zm3.1-1.1c.2-.3.4-.5.7-.7.3-.2.6-.2.9-.2v1.2h-.3c-.8 0-1.2.4-1.2 1.2v2.1h-1.1v-4.4H62v.8zm4.5 2.6v1h-.6c-.5 0-.9-.1-1.1-.4-.3-.2-.4-.6-.4-1.2v-1.9h-.6v-1h.6v-1.1h1.1v1.1h1v1h-1v1.9c0 .2 0 .4.1.4.1.1.2.1.4.1h.5zm.7-4.8c0-.2.1-.3.2-.4.1-.1.3-.2.5-.2s.4.1.5.2.2.3.2.4c0 .2-.1.3-.2.4s-.3.2-.5.2-.4-.1-.5-.2c-.1 0-.2-.2-.2-.4zm1.3 1.3v4.4h-1.1v-4.4h1.1zm5.1 2.1v.4h-3.2c0 .4.1.7.3.9.2.2.4.3.7.3.3 0 .5-.1.7-.2s.3-.3.3-.5h1.2c-.1.3-.2.6-.4.8s-.4.4-.7.6c-.3.1-.6.2-1 .2s-.8-.1-1.2-.3c-.3-.2-.6-.4-.8-.8s-.3-.7-.3-1.2.1-.9.3-1.2c.2-.3.4-.6.8-.8s.7-.3 1.2-.3c.4 0 .8.1 1.1.3.3.2.6.4.8.7.2.3.2.7.2 1.1zm-1.1-.1c0-.4-.1-.6-.3-.8-.2-.2-.5-.3-.8-.3-.3 0-.6.1-.8.3-.2.2-.3.5-.3.8h2.2zm3.5-2c.5 0 1 .1 1.3.4.3.3.5.6.6 1.1h-1.1c0-.2-.1-.4-.3-.5-.1-.1-.3-.2-.6-.2-.2 0-.3 0-.4.1s-.2.2-.2.4c0 .1 0 .2.1.3s.2.1.3.2l.2.1c.1 0 .1 0 .2.1h.1c.3.1.6.2.8.2.2.1.4.2.5.4.2.2.2.4.2.7 0 .4-.1.7-.4.9-.3.2-.7.4-1.2.4-.6 0-1-.1-1.4-.4-.3-.3-.6-.6-.6-1.1h1.1c0 .2.1.4.3.5.2.1.4.2.6.2.2 0 .3 0 .4-.1s.2-.2.2-.4c0-.1 0-.2-.1-.3-.1-.1-.2-.1-.3-.2l-.2-.1c-.1 0-.1 0-.2-.1h-.1c-.3-.1-.6-.2-.8-.2-.2-.1-.4-.2-.5-.4s-.2-.4-.2-.7c0-.4.1-.7.4-.9.3-.3.8-.4 1.3-.4z" fill="#cfe0f1"></path>
        </g>
      </g>
    </g>
  </g>
</svg>
