<?xml version="1.0" encoding="UTF-8"?>
<svg xmlns="http://www.w3.org/2000/svg" width="186" height="142" viewBox="0 0 186 142">
  <defs>
    <linearGradient id="a" x1="36.356%" x2="64.447%" y1="16.884%" y2="90.507%">
      <stop offset="0%" stop-color="#F2A402"></stop>
      <stop offset="100%" stop-color="#FFB93E"></stop>
    </linearGradient>
    <linearGradient id="b" x1="1406.332%" x2="1506.374%" y1="49.847%" y2="49.847%">
      <stop offset="0%" stop-color="#00EAB1"></stop>
      <stop offset="100%" stop-color="#00D98F"></stop>
    </linearGradient>
  </defs>
  <g fill="none" fill-rule="evenodd" stroke-linecap="round" stroke-linejoin="round">
    <path fill="#EAF3FF" d="M94.56 36.93c6 3.67 12.7 6.45 18.91 10.17 8.51 5.09 16.29 11.21 17.65 21.71 1.33 10.26-2.56 21.54-10.68 28.25a42.69 42.69 0 0 1-20.55 9.51 90.32 90.32 0 0 1-27.58-.38c-9.57-1.63-19-4.84-28.17-3.56-4.75.67-9.22 2.52-13.87 3.21A26.81 26.81 0 0 1 4.4 94.55c-5.6-8.32-6-20.62-.36-29 3.58-5.31 9.08-8.78 13.32-13.67A35.14 35.14 0 0 0 25 36.8c1.27-5.8 1.16-11.8 2.79-17.55A28.7 28.7 0 0 1 36.93 5.9C45.05-.5 55.38-.2 63.6 4.38 69.91 7.89 75.19 13.91 79.32 20c2 2.92 3.07 6.24 5.47 9a40.42 40.42 0 0 0 8.71 7.28l1.06.65z"></path>
    <path fill="#FFF" fill-rule="nonzero" stroke="#4B6584" stroke-width="1.5" d="M22.22 125.55c0 5.09 4 9.35 8.83 9.36l110.54.11c5.69 0 10.2-4.24 10.2-9.66V60.81L22.22 63.46v62.09zM63.39 5.82L26.86 31.54l.01 31.82 73.9-1.51-.02-32.52z"></path>
    <path fill="url(#a)" stroke="#4B6584" stroke-width="2" d="M70.94 51a3.46 3.46 0 0 1-3.55-3.5V36.19a3.84 3.84 0 0 1 3.66-3.83l6.61-.23a3.43 3.43 0 0 1 3.56 3.48v11.44a3.82 3.82 0 0 1-3.68 3.81l-6.6.14z"></path>
    <path fill="#609CFC" fill-rule="nonzero" stroke="#4B6584" stroke-width="1.5" d="M46.05 51.91a3.33 3.33 0 0 1-3.38-3.42v-11a3.69 3.69 0 0 1 3.48-3.72l6.28-.23a3.31 3.31 0 0 1 3.38 3.4v11.11a3.68 3.68 0 0 1-3.49 3.71l-6.27.15zM107.82 85.67l5.61-.09 7.47-.12a8.09 8.09 0 0 1 8.35 7.93v19.88a7.75 7.75 0 0 1-7.89 7.67h-4.3l-11.12.08h-6.31l-13.87.1h-4.13a7.82 7.82 0 0 1-7.78-7.79V93.58a7.48 7.48 0 0 1 7.38-7.52l26.59-.39z"></path>
    <path fill="#FFF" fill-rule="nonzero" stroke="#4B6584" stroke-width="1.5" d="M56.15 125.28V96.6a9.07 9.07 0 0 0-9-9.24h-2.7a8.84 8.84 0 0 0-8.54 9v33.51"></path>
    <path fill="#5C7793" fill-rule="nonzero" d="M54 110a1.32 1.32 0 0 1-1.33 1.27A1.26 1.26 0 1 1 54 110z"></path>
    <path fill="#FFF" fill-rule="nonzero" stroke="#4B6584" stroke-width="1.5" d="M59.05 129.9l-26.01.04"></path>
    <path stroke="#4B6584" stroke-width="1.5" d="M14.27 134.88l143.26.18"></path>
    <path fill="url(#b)" fill-rule="nonzero" d="M168.46 121.52a13.1 13.1 0 0 1 2.08 5.25c.09.141.17.288.24.44a10.9 10.9 0 0 1 2-5.3.56.56 0 0 1 1 .28v1.58a.65.65 0 0 1 .06.37c-.31 2-.32 4.44-1.24 6.36 1.92-2 2.87-4.78 5.49-6.23.44-.24 1.17.23.95.71-1.58 3.49-4.82 6.4-8.17 8.48a.48.48 0 0 1-.12.16c-.12.19-.24.39-.37.58a.34.34 0 0 1-.57-.34.61.61 0 0 0 .07-.14.65.65 0 0 1-.35-.38c-1-3.8-2.47-7.68-2.15-11.58a.62.62 0 0 1 1.08-.24z"></path>
    <path fill="#EAF3FF" fill-rule="nonzero" d="M131.97 135.23a70.82 70.82 0 0 1 15.26-.94c4 .21 7.76.49 11.63-.43 2.35-.56 4.46-1.63 6.77-2.33a24.14 24.14 0 0 1 16.32 1c2.88 1.37 5.71 5.84 2.07 7.68a9.32 9.32 0 0 1-4.56.51l-39.06-2.08a39.63 39.63 0 0 1-9.18-1.2c-.7-.21-1.11-.55-1.21-1.17-.13-.84 1.04-.89 1.96-1.04z"></path>
    <path fill="#00EAB1" d="M156.65 76c1-2.73 3-5.07 4.93-7.37 6.88-8.17 10.08 4.06 9.64 9.33-.33 4-1.33 8-.38 12 .77 3.14 2.72 5.92 4.52 8.71 1.8 2.79 3.5 5.81 3.64 9 .14 3.19-1.76 6.68-5.12 7.52-1.57.38-3.26.18-4.83.52-1.9.4-3.48 1.56-5.27 2.23-3.82 1.44-8.33.52-12-1.34-4.09-2-7.74-5.74-7.74-10 0-6.21 7.21-10 9.82-15.75 2.14-4.64.96-10.1 2.79-14.85z"></path>
    <path fill="#5C7793" fill-rule="nonzero" d="M160.83 104.22c.18-5.07.12-10.14.86-15.17.76-5.22 1.84-10.4 2.67-15.63 0-.1.21-.08.2 0-.23 4.7-1.35 9.35-2.08 14-.86 5.47-.76 10.83-.89 16.33-.13 5.12-.46 10.22-1 15.3-.47 4.8-.8 10.58.88 15.32.23.64-.88.87-1.06.22a35.72 35.72 0 0 1-.79-13c.57-5.46 1.02-11.82 1.21-17.37z"></path>
    <path fill="#5C7793" fill-rule="nonzero" d="M160.91 106.51c4.5-2.05 6.46-7 10.54-9.67.12-.09.28.11.16.21-2.24 1.74-3.83 4.15-5.62 6.29-1.22 1.47-2.87 3.54-4.92 3.75-.31.04-.43-.46-.16-.58zM158.13 85.64c1.11 2 2.57 3.88 3.48 6 .13.32-.4.5-.57.22-1.22-1.92-2.5-3.85-3.57-5.84a.38.38 0 0 1 .66-.38z"></path>
    <path fill="#EAF3FF" fill-rule="nonzero" d="M19.77 62.27L100 61.06V31.3L63.39 8.61l-35.94 25-8.82-1.51L61.86 1.29a2.68 2.68 0 0 1 3-.15l43.83 28 37-1.12c5.82-.18 10.51 4.08 10.51 9.59v30.34L19.75 69.63a1.69 1.69 0 0 1-1.65-1.74v-3.8a1.771 1.771 0 0 1 1.67-1.82z"></path>
    <path stroke="#4B6584" stroke-width="1.5" d="M156.17 37.58c0-5.51-4.69-9.77-10.51-9.59l-37 1.12-43.83-28a2.68 2.68 0 0 0-3 .15l-43.2 30.89 8.82 1.51 4.28-3"></path>
    <path stroke="#4B6584" stroke-width="1.5" d="M156.19 60.21V48.3v19.62L19.75 69.63a1.69 1.69 0 0 1-1.65-1.74v-3.8a1.771 1.771 0 0 1 1.67-1.82L100 61.06V31.3L63.39 8.61l-24.63 17"></path>
  </g>
</svg>
