<?xml version="1.0" encoding="UTF-8"?>
<svg xmlns="http://www.w3.org/2000/svg" xmlns:xlink="http://www.w3.org/1999/xlink" width="186" height="142" viewBox="0 0 186 142">
  <defs>
    <path id="a" d="M13.902 24.177c.804 2.836 1.83 5.862.861 8.648-.942 2.707-3.382 4.278-5.924 5.82-1.591.965-3.222 1.917-4.552 3.129-5.179 4.718-4.695 14.144.939 18.315 3.661 2.712 9.891 4.407 11.538 9.069 2.192 6.198-3.028 10.087-5.641 14.743-.933 1.664-1.1 3.648-.991 5.548.569 10.002 9.04 18.986 19.052 20.209 8.914 1.088 17.436-3.29 25.984-6.028 4.794-1.534 10.389-2.47 14.591.29 3.529 2.318 5.139 6.668 8.303 9.46 3.339 2.948 8.036 3.84 12.502 3.99 4.538.151 9.341-.433 12.993-3.115 2.632-1.931 4.45-4.826 5.448-7.922 1.48-4.6.584-8.5 5.998-10.868 3.001-1.313 6.363-1.453 9.624-1.8 8.273-.876 16.56-3.297 23.212-8.26 6.652-4.963 11.479-12.716 11.611-20.977.146-9.305-5.163-17.596-12.753-22.573-2.933-1.922-5.964-3.886-9.413-4.553-1.881-.363-3.8-.324-5.722-.285-.993.02-1.985.04-2.973.004-7.171-.254-16.126-2.562-20.173-8.858-1.696-2.638-2.669-5.667-4.201-8.402C99.42 11.2 88.792 6.29 79.109 8.167c-8.824 1.71-17.852 7.445-27.143 4.777-5.867-1.684-9.971-6.899-15.367-9.739C33.59 1.623 30.722.917 28.087.917c-10.668 0-17.497 11.568-14.185 23.26"></path>
    <linearGradient id="c" x1="42.518%" x2="57.923%" y1="16.884%" y2="90.507%">
      <stop offset="0%" stop-color="#F2A402"></stop>
      <stop offset="100%" stop-color="#FFB93E"></stop>
    </linearGradient>
    <path id="d" d="M14.882 3.036c-2.471 8.65-4.383 14.805-6.854 23.457 1.817-7.268 1.34-18.984-1.85-19.697-2.272-.507-2.867 3.94-3.253 6.547a259.524 259.524 0 0 0-2.282 21.79H18.51c3.485-4.783 6.01-11.52 8.261-17.182.416-1.046.769-2.434.046-3.226-.312-.34-.755-.465-1.182-.508-3.293-.322-5.721 3.353-7.468 6.605 0 0 2.347-20.075-.895-20.543a1.19 1.19 0 0 0-.247-.027c-1.073 0-1.782 1.52-2.143 2.784"></path>
    <path id="f" d="M10.91 106.87c.86 0 1.573.212 2.14.635.567.423.93.995 1.09 1.715h-1.48a1.681 1.681 0 0 0-.665-.765c-.303-.19-.662-.285-1.075-.285a2.07 2.07 0 0 0-1.08.28 1.89 1.89 0 0 0-.73.8c-.173.347-.26.753-.26 1.22 0 .74.198 1.317.595 1.73.397.413.938.62 1.625.62.507 0 .942-.15 1.305-.45.363-.3.598-.717.705-1.25h-2.39v-1.01h3.57v1.36c-.1.467-.295.897-.585 1.29s-.67.708-1.14.945c-.47.237-1.008.355-1.615.355-.693 0-1.305-.152-1.835-.455a3.134 3.134 0 0 1-1.23-1.27c-.29-.543-.435-1.165-.435-1.865s.145-1.322.435-1.865c.29-.543.698-.968 1.225-1.275.527-.307 1.137-.46 1.83-.46zm6.97 1.52c.54 0 1.025.113 1.455.34.43.227.768.555 1.015.985.247.43.37.935.37 1.515 0 .58-.123 1.083-.37 1.51a2.531 2.531 0 0 1-1.015.985c-.43.23-.915.345-1.455.345s-1.025-.115-1.455-.345a2.531 2.531 0 0 1-1.015-.985c-.247-.427-.37-.93-.37-1.51s.123-1.085.37-1.515c.247-.43.585-.758 1.015-.985.43-.227.915-.34 1.455-.34zm0 1.22c-.393 0-.727.138-1 .415-.273.277-.41.678-.41 1.205s.137.928.41 1.205c.273.277.607.415 1 .415s.727-.138 1-.415c.273-.277.41-.678.41-1.205s-.137-.928-.41-1.205a1.352 1.352 0 0 0-1-.415zm10.87 2.46c0 .36-.09.692-.27.995a1.94 1.94 0 0 1-.8.73c-.353.183-.783.275-1.29.275-.5 0-.947-.085-1.34-.255a2.266 2.266 0 0 1-.945-.735 2.12 2.12 0 0 1-.405-1.12h1.5c.033.287.148.525.345.715.197.19.458.285.785.285.293 0 .518-.078.675-.235a.819.819 0 0 0 .235-.605.793.793 0 0 0-.19-.545 1.386 1.386 0 0 0-.48-.345 7.74 7.74 0 0 0-.605-.234l-.195-.066c-.44-.147-.8-.292-1.08-.435a1.996 1.996 0 0 1-.715-.625c-.197-.273-.295-.63-.295-1.07 0-.607.218-1.085.655-1.435.437-.35 1.015-.525 1.735-.525.747 0 1.342.18 1.785.54.443.36.695.84.755 1.44h-1.52a1.059 1.059 0 0 0-.32-.625c-.173-.163-.41-.245-.71-.245-.26 0-.47.068-.63.205-.16.137-.24.335-.24.595a.74.74 0 0 0 .185.515c.123.137.28.248.47.335.19.087.448.183.775.29.453.16.822.31 1.105.45.283.14.525.35.725.63.2.28.3.647.3 1.1zm4 .72V114h-.74c-.62 0-1.095-.15-1.425-.45-.33-.3-.495-.8-.495-1.5v-2.4h-.77v-1.19h.77v-1.37h1.41v1.37h1.24v1.19H31.5v2.42c0 .267.053.453.16.56.107.107.287.16.54.16h.55zm3.18-4.4c.467 0 .867.11 1.2.33.333.22.57.517.71.89v-1.15h1.4V114h-1.4v-1.16c-.14.373-.377.672-.71.895-.333.223-.733.335-1.2.335a2.38 2.38 0 0 1-1.26-.34 2.297 2.297 0 0 1-.875-.985c-.21-.43-.315-.935-.315-1.515 0-.58.105-1.085.315-1.515.21-.43.502-.758.875-.985a2.38 2.38 0 0 1 1.26-.34zm.44 1.23c-.44 0-.793.143-1.06.43-.267.287-.4.68-.4 1.18 0 .5.133.892.4 1.175.267.283.62.425 1.06.425.427 0 .778-.145 1.055-.435.277-.29.415-.678.415-1.165 0-.493-.138-.885-.415-1.175-.277-.29-.628-.435-1.055-.435zm7.11 3.17V114h-.74c-.62 0-1.095-.15-1.425-.45-.33-.3-.495-.8-.495-1.5v-2.4h-.77v-1.19h.77v-1.37h1.41v1.37h1.24v1.19h-1.24v2.42c0 .267.053.453.16.56.107.107.287.16.54.16h.55zm6.22-1.77c0 .14-.017.3-.05.48h-4.06c.02.493.153.857.4 1.09.247.233.553.35.92.35.327 0 .598-.08.815-.24.217-.16.355-.377.415-.65h1.49c-.073.387-.23.733-.47 1.04-.24.307-.548.547-.925.72-.377.173-.795.26-1.255.26-.54 0-1.02-.115-1.44-.345a2.425 2.425 0 0 1-.98-.985c-.233-.427-.35-.93-.35-1.51s.117-1.085.35-1.515c.233-.43.56-.758.98-.985.42-.227.9-.34 1.44-.34.547 0 1.025.113 1.435.34.41.227.727.538.95.935.223.397.335.848.335 1.355zm-1.42-.14c.02-.453-.098-.797-.355-1.03a1.353 1.353 0 0 0-.945-.35c-.38 0-.7.117-.96.35-.26.233-.403.577-.43 1.03h2.69zm6.55-4.23l-.18 5h-1.19l-.18-5h1.55zm-.01 5.88V114H53.3v-1.47h1.52z"></path>
  </defs>
  <g fill="none" fill-rule="evenodd">
    <g transform="translate(7 .076)">
      <mask id="b" fill="#fff">
        <use xlink:href="#a"></use>
      </mask>
      <path fill="#EAF3FF" d="M13.902 24.177c.804 2.836 1.83 5.862.861 8.648-.942 2.707-3.382 4.278-5.924 5.82-1.591.965-3.222 1.917-4.552 3.129-5.179 4.718-4.695 14.144.939 18.315 3.661 2.712 9.891 4.407 11.538 9.069 2.192 6.198-3.028 10.087-5.641 14.743-.933 1.664-1.1 3.648-.991 5.548.569 10.002 9.04 18.986 19.052 20.209 8.914 1.088 17.436-3.29 25.984-6.028 4.794-1.534 10.389-2.47 14.591.29 3.529 2.318 5.139 6.668 8.303 9.46 3.339 2.948 8.036 3.84 12.502 3.99 4.538.151 9.341-.433 12.993-3.115 2.632-1.931 4.45-4.826 5.448-7.922 1.48-4.6.584-8.5 5.998-10.868 3.001-1.313 6.363-1.453 9.624-1.8 8.273-.876 16.56-3.297 23.212-8.26 6.652-4.963 11.479-12.716 11.611-20.977.146-9.305-5.163-17.596-12.753-22.573-2.933-1.922-5.964-3.886-9.413-4.553-1.881-.363-3.8-.324-5.722-.285-.993.02-1.985.04-2.973.004-7.171-.254-16.126-2.562-20.173-8.858-1.696-2.638-2.669-5.667-4.201-8.402C99.42 11.2 88.792 6.29 79.109 8.167c-8.824 1.71-17.852 7.445-27.143 4.777-5.867-1.684-9.971-6.899-15.367-9.739C33.59 1.623 30.722.917 28.087.917c-10.668 0-17.497 11.568-14.185 23.26" mask="url(#b)"></path>
    </g>
    <path fill="#EAF3FF" d="M100.506 4.784l72.582 37.092c.635.326.402 1.278-.312 1.278H25.329c-.714 0-.946-.952-.311-1.278L97.6 4.784a3.19 3.19 0 0 1 2.906 0"></path>
    <path fill="#FFF" d="M166.57 79.356v52.677c0 4.083-3.334 7.393-7.446 7.393H38.981c-4.112 0-7.445-3.31-7.445-7.393V43.34H166.57v26.806"></path>
    <path stroke="#4B6584" stroke-linecap="round" stroke-linejoin="round" stroke-width="1.5" d="M166.57 79.356v52.677c0 4.083-3.334 7.393-7.446 7.393H38.981c-4.112 0-7.445-3.31-7.445-7.393V43.34H166.57v26.806"></path>
    <path fill="#4B6584" d="M76.612 50.56h-3.959c-1.654 0-2.996-1.333-2.996-2.975v-4.246h9.95v4.246a2.986 2.986 0 0 1-2.995 2.975"></path>
    <path fill="#FFF" d="M74.633 50.56v88.866"></path>
    <path stroke="#4B6584" stroke-linecap="round" stroke-linejoin="round" stroke-width="1.5" d="M74.633 50.56v88.866"></path>
    <path fill="#4B6584" d="M125.452 50.56h-3.959a2.986 2.986 0 0 1-2.995-2.975v-4.246h9.95v4.246c0 1.642-1.342 2.975-2.996 2.975"></path>
    <path fill="#FFF" d="M123.473 50.56v88.866"></path>
    <path stroke="#4B6584" stroke-linecap="round" stroke-linejoin="round" stroke-width="1.5" d="M123.473 50.56v88.866"></path>
    <path fill="#609CFC" d="M52.248 78.39h-4.07c-1.92 0-3.478-1.547-3.478-3.453v-13.41c0-1.906 1.557-3.452 3.477-3.452h4.071c1.92 0 3.477 1.546 3.477 3.452v13.41c0 1.906-1.557 3.452-3.477 3.452"></path>
    <path stroke="#4B6584" stroke-linecap="round" stroke-linejoin="round" stroke-width="1.5" d="M52.248 78.39h-4.07c-1.92 0-3.478-1.547-3.478-3.453v-13.41c0-1.906 1.557-3.452 3.477-3.452h4.071c1.92 0 3.477 1.546 3.477 3.452v13.41c0 1.906-1.557 3.452-3.477 3.452z"></path>
    <path fill="#609CFC" d="M52.248 113.624h-4.07c-1.92 0-3.478-1.546-3.478-3.453V96.762c0-1.906 1.557-3.452 3.477-3.452h4.071c1.92 0 3.477 1.546 3.477 3.452v13.409c0 1.907-1.557 3.453-3.477 3.453"></path>
    <path stroke="#4B6584" stroke-linecap="round" stroke-linejoin="round" stroke-width="1.5" d="M52.248 113.624h-4.07c-1.92 0-3.478-1.546-3.478-3.453V96.762c0-1.906 1.557-3.452 3.477-3.452h4.071c1.92 0 3.477 1.546 3.477 3.452v13.409c0 1.907-1.557 3.453-3.477 3.453z"></path>
    <path fill="#609CFC" d="M149.929 78.39h-4.071c-1.92 0-3.477-1.547-3.477-3.453v-13.41c0-1.906 1.557-3.452 3.477-3.452h4.07c1.92 0 3.478 1.546 3.478 3.452v13.41c0 1.906-1.557 3.452-3.477 3.452"></path>
    <path stroke="#4B6584" stroke-linecap="round" stroke-linejoin="round" stroke-width="1.5" d="M149.929 78.39h-4.071c-1.92 0-3.477-1.547-3.477-3.453v-13.41c0-1.906 1.557-3.452 3.477-3.452h4.07c1.92 0 3.478 1.546 3.478 3.452v13.41c0 1.906-1.557 3.452-3.477 3.452z"></path>
    <path fill="url(#c)" d="M91.088 74.341h-4.07c-1.92 0-3.477-1.546-3.477-3.453v-13.41c0-1.906 1.557-3.452 3.477-3.452h4.07c1.92 0 3.477 1.546 3.477 3.453v13.41c0 1.906-1.557 3.452-3.477 3.452" transform="translate(10 4.048)"></path>
    <path stroke="#4B6584" stroke-linecap="round" stroke-linejoin="round" stroke-width="1.5" d="M101.088 78.39h-4.07c-1.92 0-3.477-1.547-3.477-3.453v-13.41c0-1.906 1.557-3.452 3.477-3.452h4.07c1.92 0 3.477 1.546 3.477 3.452v13.41c0 1.906-1.557 3.452-3.477 3.452z"></path>
    <path fill="#609CFC" d="M149.929 113.624h-4.071c-1.92 0-3.477-1.546-3.477-3.453V96.762c0-1.906 1.557-3.452 3.477-3.452h4.07c1.92 0 3.478 1.546 3.478 3.452v13.409c0 1.907-1.557 3.453-3.477 3.453"></path>
    <path stroke="#4B6584" stroke-linecap="round" stroke-linejoin="round" stroke-width="1.5" d="M149.929 113.624h-4.071c-1.92 0-3.477-1.546-3.477-3.453V96.762c0-1.906 1.557-3.452 3.477-3.452h4.07c1.92 0 3.478 1.546 3.478 3.452v13.409c0 1.907-1.557 3.453-3.477 3.453z"></path>
    <path fill="#FFF" d="M99.116 95.387c-5.673 0-10.272 4.568-10.272 10.2v21.04h20.545v-21.04c0-5.632-4.599-10.2-10.273-10.2"></path>
    <path stroke="#4B6584" stroke-linecap="round" stroke-linejoin="round" stroke-width="1.5" d="M99.116 95.387c-5.673 0-10.272 4.568-10.272 10.2v21.04h20.545v-21.04c0-5.632-4.599-10.2-10.273-10.2z"></path>
    <path fill="#FFF" d="M85.524 126.627h27.185"></path>
    <path stroke="#4B6584" stroke-linecap="round" stroke-linejoin="round" stroke-width="1.5" d="M85.524 126.627h27.185"></path>
    <g>
      <path fill="#FFF" d="M83.611 129.956h31.011"></path>
      <path stroke="#4B6584" stroke-linecap="round" stroke-linejoin="round" stroke-width="1.5" d="M83.611 129.956h31.011"></path>
    </g>
    <path stroke="#4B6584" stroke-linecap="round" stroke-linejoin="round" stroke-width="1.5" d="M51.522 28.332L97.6 4.784a3.19 3.19 0 0 1 2.906 0l72.582 37.093c.635.325.403 1.277-.311 1.277H25.328c-.713 0-.947-.952-.312-1.277l21.698-11.089M185.04 140.014H25.985M19.822 140.014h-9.719"></path>
    <g transform="translate(149 104.342)">
      <mask id="e" fill="#fff">
        <use xlink:href="#d"></use>
      </mask>
      <path fill="#00EAB1" d="M14.882 3.036c-2.471 8.65-4.383 14.805-6.854 23.457 1.817-7.268 1.34-18.984-1.85-19.697-2.272-.507-2.867 3.94-3.253 6.547a259.524 259.524 0 0 0-2.282 21.79H18.51c3.485-4.783 6.01-11.52 8.261-17.182.416-1.046.769-2.434.046-3.226-.312-.34-.755-.465-1.182-.508-3.293-.322-5.721 3.353-7.468 6.605 0 0 2.347-20.075-.895-20.543a1.19 1.19 0 0 0-.247-.027c-1.073 0-1.782 1.52-2.143 2.784" mask="url(#e)"></path>
    </g>
    <g>
      <path fill="#EAF3FF" d="M7.488 122.317l45.995.095c4.635.005 8.526-3.776 8.554-8.343l.052-8.402c.026-4.303-3.399-7.675-7.764-7.672L8.14 98.04c-4.012.002-7.366 3.564-7.373 7.803l-.016 9.318c-.007 3.988 2.964 7.152 6.738 7.156"></path>
      <path stroke="#4B6584" stroke-linecap="round" stroke-linejoin="round" stroke-width="1.5" d="M14.871 98.063l39.454-.068c4.365-.003 7.79 3.37 7.764 7.672l-.052 8.403c-.028 4.567-3.919 8.346-8.554 8.342l-45.995-.094c-3.774-.004-6.745-3.17-6.738-7.157l.017-9.317c.006-4.24 3.36-7.801 7.373-7.803"></path>
      <path fill="#EAF3FF" d="M16.251 140.261l.017-17.924"></path>
      <path stroke="#4B6584" stroke-linecap="round" stroke-linejoin="round" stroke-width="1.5" d="M16.268 139.648v-17.311"></path>
      <g>
        <path fill="#EAF3FF" d="M46.588 122.394l-.03 17.945"></path>
        <path stroke="#4B6584" stroke-linecap="round" stroke-linejoin="round" stroke-width="1.5" d="M46.588 122.394v17.148"></path>
      </g>
    </g>
    <g fill-rule="nonzero">
      <use fill="#000" xlink:href="#f"></use>
      <use fill="#4B6584" xlink:href="#f"></use>
    </g>
  </g>
</svg>
